<?xml version="1.0" encoding="UTF-8" standalone="no"?><!DOCTYPE svg PUBLIC "-//W3C//DTD SVG 1.1//EN" "http://www.w3.org/Graphics/SVG/1.1/DTD/svg11.dtd"><svg width="100%" height="100%" viewBox="0 0 4000 4000" version="1.1" xmlns="http://www.w3.org/2000/svg" xmlns:xlink="http://www.w3.org/1999/xlink" xml:space="preserve" xmlns:serif="http://www.serif.com/" style="fill-rule:evenodd;clip-rule:evenodd;stroke-linejoin:round;stroke-miterlimit:2;"><g><path d="M3620.04,1970.98c0,897.902 -727.896,1625.79 -1625.79,1625.79c-897.902,0 -1625.79,-727.883 -1625.79,-1625.79c0,-897.902 727.89,-1625.79 1625.79,-1625.79c897.889,0 1625.79,727.886 1625.79,1625.79Z" style="fill:#ff2261;fill-rule:nonzero;"/><path d="M3658.88,3304.83c-0,-0 -211.87,461.435 -1264.24,119.781c0,0 -361.932,-1225.55 317.581,-1410.44c-0,-0 188.518,-25.927 354.182,291.23c160.152,306.521 78.515,207.752 247.687,551.558c5.835,11.856 11.968,24.26 18.425,37.223c-0,0 21.013,51.046 58.97,118.314c18.487,32.682 40.968,69.172 67.019,105.475c50.548,70.577 114.557,140.607 188.705,180.779c3.869,2.152 7.738,4.18 11.67,6.084Z" style="fill:#00a4ff;fill-rule:nonzero;"/><path d="M3475.3,3104.27c-4.044,-5.673 -8.025,-11.359 -11.894,-17.019c73.875,-60.749 131.103,-145.348 168.451,-250.399c7.999,37.074 -137.485,250.15 -137.485,250.15c-0,-0 -6.619,6.693 -19.072,17.268Z" style="fill:#b2b2d4;fill-rule:nonzero;"/><path d="M3076.12,3528.62c-77.308,-0 -165.44,-6.668 -265.565,-22.767c-24.036,-6.942 -51.418,-12.702 -82.558,-16.858c19.644,-39.487 28.465,-84.859 23.115,-131.575c-3.097,-27.022 -6.718,-56.047 -10.848,-86.714c12.142,16.596 24.807,32.795 38.032,48.495c14.643,17.256 30.181,33.74 46.517,49.316c16.434,15.427 33.54,30.319 52.588,42.225c-17.53,-13.971 -32.645,-30.53 -47.015,-47.475c-14.282,-17.069 -27.494,-34.959 -39.985,-53.297c-21.66,-31.924 -41.105,-65.24 -58.572,-99.515c-10.488,-70.516 -26.81,-131.34 -46.032,-185.582c4.081,-0.299 8.149,-0.448 12.205,-0.448c63.872,0 125.467,35.606 168.762,68.525c67.591,51.369 145.024,84.101 224.783,96.417c2.289,3.745 4.603,7.477 6.942,11.21c7.776,12.453 15.812,24.77 24.098,36.887c-72.755,-1.916 -152.501,-21.996 -235.881,-72.22c-11.52,-6.929 -24.683,-10.749 -37.882,-10.749c-7.067,0 -14.158,1.095 -20.988,3.397c-25.405,8.559 -48.122,32.918 -19.234,99.577c29.473,67.928 193.271,189.775 416.511,189.775c120.764,-0 258.884,-35.619 402.627,-134.711c0.411,0.224 0.809,0.46 1.207,0.697c-22.655,33.814 -85.507,109.505 -219.633,161.259c-76.997,29.697 -185.283,54.143 -333.194,54.131Zm74.472,-291.305c-8.1,-14.407 -15.813,-29.013 -23.178,-43.805c11.919,0.921 23.874,1.381 35.83,1.381c31.725,-0 63.487,-3.247 94.775,-9.878c62.927,-13.312 120.081,-37.535 170.603,-71.76c4.068,5.922 8.236,11.857 12.503,17.791c-58.833,42.623 -162.491,101.556 -290.533,106.271Zm-530.757,-363.699c-7.477,-14.892 -14.929,-29.411 -22.244,-43.643c-41.404,-80.593 -80.556,-156.794 -96.082,-250.487c10.152,-35.108 88.368,-283.666 301.98,-429.935c27.606,11.359 124.87,64.992 227.881,283.144c87.808,185.955 187.535,338.419 242.4,416.997c-48.072,-52.004 -165.03,-186.963 -243.358,-347.725c-48.843,-100.287 -133.516,-170.218 -221.25,-170.218c-83.069,0 -168.899,62.653 -229.747,221.549c-19.869,51.904 -16.721,110.6 11.582,158.423c8.983,15.191 20.341,29.747 34.673,41.603c16.696,13.822 33.429,35.544 48.756,59.381c6.308,9.803 12.889,19.395 19.732,28.763c-33.417,6.805 -58.1,20.391 -74.323,32.148Z" style="fill:#0072d4;fill-rule:nonzero;"/><path d="M3277.21,3402.2c-19.047,-11.906 -36.154,-26.798 -52.588,-42.224c-16.335,-15.576 -31.874,-32.061 -46.529,-49.316c-19.694,-23.414 -38.182,-47.898 -55.512,-73.203c3.907,0.1 7.813,0.149 11.682,0.149c5.487,0 10.923,-0.099 16.323,-0.298c12.316,21.883 25.491,43.294 39.637,64.12c12.478,18.338 25.69,36.229 39.972,53.298c14.37,16.957 29.486,33.503 47.015,47.474Zm-247.737,-466.698c-21.884,-5.063 -43.444,-11.906 -64.059,-20.117l-6.593,-23.127c-6.47,-21.237 -12.665,-42.598 -19.595,-63.736c-13.312,-42.473 -28.117,-84.511 -42.834,-126.673c-14.768,-42.138 -30.319,-84.052 -46.48,-125.766c-15.849,-41.851 -32.545,-83.404 -49.639,-124.87c45.011,77.632 86.154,157.54 124.895,238.73c19.37,40.607 37.783,81.712 55.387,123.24c8.995,20.677 17.293,41.689 25.865,62.603l12.329,31.612c3.695,9.617 7.477,18.724 10.724,28.104Z" style="fill:#0072d4;fill-rule:nonzero;"/><path d="M3134.27,3237.61c-3.869,0 -7.775,-0.049 -11.682,-0.149c-8.286,-12.117 -16.322,-24.434 -24.098,-36.887c-2.339,-3.733 -4.653,-7.465 -6.942,-11.21c11.906,1.841 23.874,3.222 35.867,4.143c7.365,14.792 15.078,29.398 23.178,43.805c-5.4,0.199 -10.836,0.298 -16.323,0.298Z" style="fill:#0050b6;fill-rule:nonzero;"/><path d="M2877.4,3410.74c-19.048,-11.906 -36.154,-26.798 -52.588,-42.225c-16.336,-15.576 -31.874,-32.06 -46.517,-49.316c-13.225,-15.7 -25.89,-31.899 -38.032,-48.495c-2.426,-18.052 -5.026,-36.676 -7.788,-55.81c-0.212,-1.493 -0.436,-2.973 -0.647,-4.441c17.467,34.275 36.912,67.591 58.572,99.515c12.491,18.338 25.703,36.228 39.985,53.297c14.37,16.945 29.485,33.504 47.015,47.475Z" style="fill:#0050b6;fill-rule:nonzero;"/><path d="M2412.19,3407.7c527.522,169.372 833.246,129.996 997.119,66.783c134.126,-51.754 196.978,-127.445 219.633,-161.259c-187.884,-108.038 -307.578,-389.813 -316.026,-410.167c-97.835,-196.368 -122.705,-264.233 -144.663,-324.124c-21.175,-57.763 -39.451,-107.664 -120.926,-263.612c-148.993,-285.209 -315.889,-280.966 -331.229,-279.946c-128.913,35.531 -227.756,113.536 -293.805,231.85c-209.407,375.169 -35.793,1047.07 -10.103,1140.48Zm663.614,165.03c-195.846,-0 -425.792,-42.586 -687.824,-127.657c-6.743,-2.19 -11.968,-7.564 -13.971,-14.369c-0.572,-1.892 -56.469,-192.898 -83.068,-432.162c-35.93,-323.229 -4.379,-576.316 93.78,-752.218c72.195,-129.361 180.469,-214.458 321.848,-252.925c0.883,-0.237 1.791,-0.423 2.712,-0.548c8.31,-1.144 205.45,-24.21 376.152,302.565c82.77,158.423 101.506,209.543 123.203,268.725c21.573,58.895 46.057,125.653 143.096,320.429c0.237,0.448 0.448,0.921 0.647,1.393c1.257,3.061 128.167,306.956 316.001,399.592c10.438,5.15 14.879,17.666 10.027,28.253c-2.314,5.026 -58.759,124.086 -249.143,199.043c-101.406,39.936 -219.458,59.879 -353.46,59.879Z" style="fill:#000072;fill-rule:nonzero;"/><path d="M2800.28,2125.8c0,-0 121.536,24.521 250.524,297.712c129,273.191 281.688,470.642 281.688,470.642c0,-0 -160.588,-419.721 -207.976,-598.174c-47.387,-178.454 -224.634,-406.745 -324.236,-170.18Z" style="fill:#00a4ff;fill-rule:nonzero;"/><path d="M2829.33,2114.01c44.339,21.436 141.54,89.849 240.919,300.325c61.234,129.672 128.316,242.761 181.377,325.12c-50.784,-137.996 -119.234,-330.096 -147.886,-437.96c-30.903,-116.41 -119.52,-250.362 -191.852,-255.388c-31.165,-2.239 -58.858,20.652 -82.558,67.903Zm503.187,801.634c-6.469,-0 -12.827,-2.912 -17.032,-8.348c-1.53,-1.991 -155.599,-202.44 -284.114,-474.611c-121.237,-256.744 -234.512,-285.619 -235.644,-285.881c-6.184,-1.43 -11.558,-5.561 -14.444,-11.196c-2.887,-5.649 -3.285,-12.317 -0.822,-18.164c41.777,-99.229 96.219,-116.945 134.413,-114.233c97.002,6.743 195.136,154.355 230.431,287.249c46.542,175.306 205.674,591.817 207.279,595.997c3.807,9.965 -0.261,21.212 -9.554,26.437c-3.31,1.854 -6.93,2.75 -10.513,2.75Z" style="fill:#000072;fill-rule:nonzero;"/><path d="M1524.57,3403.91c-713.726,289.812 -761.636,27.818 -764.647,2.028c0,-0.311 -0.062,-0.622 -0.062,-0.859c-0.062,-0.809 -0.062,-1.169 -0.062,-1.169c186.552,-233.555 240.608,-444.864 255.662,-563.725c8.049,-63.511 4.914,-100.685 4.914,-100.685l169.048,-102.215l223.9,-135.32c-0,-0 137.423,95.335 254.629,229.312c176.164,201.294 306.769,489.825 -143.382,672.633Z" style="fill:#00a4ff;fill-rule:nonzero;"/><path d="M993.462,3518.08c-74.77,0 -123.539,-15.476 -155.325,-35.295c-33.989,-21.211 -47.736,-47.375 -53.248,-63.896c32.981,17.517 96.206,44.153 175.617,44.153c7.726,-0 15.589,-0.249 23.613,-0.784c70.553,-4.728 123.551,-66.423 118.177,-136.938c-5.872,-77.134 0.535,-188.033 59.853,-294.316c32.148,-57.614 5.176,-129.921 -57.066,-151.78c-4.131,-1.443 -8.261,-2.936 -12.392,-4.466c0.747,0.013 1.506,0.013 2.265,0.013c55.399,-0 109.182,-12.914 152.688,-48.147c6.68,31.115 14.406,63.772 23.302,97.985c-20.304,21.51 -69.011,78.975 -99.441,163.226c-33.242,92.05 -49.453,233.181 51.12,396.07c-95.41,24.583 -170.342,34.175 -229.163,34.175Z" style="fill:#0072d4;fill-rule:nonzero;"/><path d="M782.401,3409.97c3.148,14.308 14.668,47.189 55.736,72.817c78.266,48.794 259.456,71.275 678.319,-98.806c180.617,-73.352 278.764,-169.483 291.678,-285.731c27.432,-246.742 -327.558,-520.394 -395.859,-570.555l-369.795,223.576c1.592,63.947 -7.851,338.991 -260.079,658.699Zm210.937,151.27c-74.658,0 -134.636,-14.332 -179.685,-43.071c-71.192,-45.397 -75.219,-110.463 -75.36,-113.2c-0.261,-5.238 1.403,-10.4 4.678,-14.494c276.903,-346.605 256.239,-646.233 256.003,-649.219c-0.647,-8.124 3.334,-15.949 10.301,-20.167l392.923,-237.547c7.24,-4.392 16.409,-4.106 23.376,0.734c18.736,13 458.263,321.773 425.307,618.676c-14.78,133.156 -121.859,241.119 -318.24,320.865c-225.418,91.528 -405.799,137.423 -539.303,137.423Z" style="fill:#000072;fill-rule:nonzero;"/><path d="M3656.43,2608.29c-17.019,238.034 -126.239,497.129 -402.851,555.676c-131.14,27.769 -267.083,-7.004 -373.789,-88.156c-58.97,-44.838 -140.67,-87.411 -223.228,-68.177c0,0 -49.689,-11.545 -43.606,-99.329c0,0 19.408,-23.526 59.456,-38.081c46.989,-17.02 122.431,-21.809 228.329,38.081c159.717,90.297 471.276,127.707 435.098,-284.599c-6.271,-71.075 -22.792,-155.599 -52.277,-255.475c-27.831,-94.228 26.474,-194.975 121.809,-218.439c11.234,-2.762 22.854,-4.478 34.822,-4.727c38.219,-0.983 79.983,12.217 123.29,49.452c63.337,54.417 106.333,227.645 92.947,413.774Z" style="fill:#fff;fill-rule:nonzero;"/><path d="M3656.43,2608.29c-130.17,69.906 -241.106,52.091 -320.591,15.415c-6.271,-71.075 -22.792,-155.599 -52.277,-255.475c-27.831,-94.228 26.474,-194.975 121.809,-218.439c46.927,-11.607 101.17,-4.18 158.112,44.725c63.337,54.417 106.333,227.645 92.947,413.774Z" style="fill:#ffa300;fill-rule:nonzero;"/><path d="M3163.27,3151.89c-95.124,0 -190.31,-32.247 -270.479,-93.183c-67.169,-51.058 -133.653,-77.258 -194.937,-77.258c-9.393,-0 -18.662,0.609 -27.794,1.854c-9.94,-24.696 -20.378,-48.023 -30.965,-70.342c8.671,-7.141 23.24,-16.944 44.066,-23.936c1.679,3.185 3.322,6.419 4.901,9.704c11.745,24.334 35.42,40.557 62.205,44.116c30.406,4.055 73.402,18.238 122.158,59.256c44.887,37.758 151.506,86.726 269.696,86.726c104.877,-0 218.873,-38.517 307.042,-157.627c40.682,-54.952 67.841,-118.675 81.899,-185.582c5.648,-26.873 11.857,-59.99 17.181,-96.94c27.346,-5.748 55.922,-15.141 85.569,-29.025c-3.906,46.43 -11.396,93.345 -23.053,138.903c-37.982,148.471 -131.576,335.695 -361.646,384.389c-28.328,5.997 -57.079,8.945 -85.843,8.945Z" style="fill:#b2b2d4;fill-rule:nonzero;"/><path d="M3548.24,2648.68c21.896,-152.141 28.702,-369.024 -80.592,-479.898c27.83,5.138 55.213,19.184 81.849,42.063c59.642,51.22 99.702,226.077 84.312,408.81c-29.647,13.884 -58.223,23.277 -85.569,29.025Z" style="fill:#b27222;fill-rule:nonzero;"/><path d="M2697.85,2981.45c61.284,-0 127.768,26.2 194.937,77.258c104.405,79.361 234.288,110.053 356.322,84.238c230.07,-48.694 323.664,-235.918 361.646,-384.389c57.527,-224.845 13.536,-483.48 -61.259,-547.713c-44.688,-38.38 -91.454,-51.904 -138.953,-40.197c-39.077,9.63 -71.81,34.474 -92.188,69.968c-21.013,36.626 -26.201,80.904 -14.207,121.511c86.638,293.483 73.488,487.661 -39.065,577.124c-101.444,80.618 -261.41,51.941 -374.921,-12.254c-155.4,-87.896 -236.578,-27.968 -256.122,-9.617c-1.468,47.86 16.584,63.374 24.459,67.828c12.839,-2.513 25.964,-3.757 39.351,-3.757Zm465.391,213.437c-104.429,-0 -208.759,-35.27 -296.48,-101.941c-51.531,-39.177 -128.963,-82.148 -205.326,-64.395l-4.865,1.133l-4.864,-1.133c-2.75,-0.634 -67.443,-16.832 -60.189,-121.759l0.485,-6.893l4.404,-5.312c4.193,-5.101 105.524,-123.439 314.918,-5.026c97.699,55.25 241.691,83.84 326.998,16.024c96.132,-76.413 104.629,-260.116 24.584,-531.279c-15.29,-51.817 -8.672,-108.348 18.151,-155.089c26.288,-45.783 68.612,-77.856 119.185,-90.322c61.806,-15.226 121.436,1.381 177.271,49.329c87.509,75.156 138.132,343.868 74.894,590.995c-57.962,226.563 -198.035,374.237 -394.391,415.79c-31.288,6.631 -63.05,9.878 -94.775,9.878Z" style="fill:#000072;fill-rule:nonzero;"/><path d="M1237.52,765.7l-389.639,731.181l-13.511,25.305c-364.632,-310.017 -263.645,-780.621 -213.09,-945.923c8.231,-27.089 31.083,-45.947 57.619,-50.492c8.538,-1.414 17.446,-1.414 26.353,0.305c14.067,2.704 28.071,5.652 41.893,8.909c242.389,56.882 442.838,196.076 483.01,225.254c4.852,3.558 7.365,5.461 7.365,5.461Z" style="fill:#fff;fill-rule:nonzero;"/><path d="M1230.15,760.239c-51.294,45.708 -118.861,73.464 -192.947,73.464c-160.327,-0 -290.247,-129.915 -290.247,-290.241c0,-2.826 0.061,-5.651 0.184,-8.477c242.389,56.882 442.838,196.076 483.01,225.254Z" style="fill:#ffa300;fill-rule:nonzero;"/><path d="M804.696,1288.87c-6.98,-204.554 97.114,-340.248 99.079,-487.574c32.173,16.683 67.878,27.52 105.686,31.103c9.406,15.999 18.998,28.962 26.811,38.467c-149.989,120.541 -210.402,274.759 -231.576,418.004Zm-57.026,-724.913c-5.882,-3.734 -11.805,-7.351 -17.737,-10.848c5.797,1.285 11.588,2.626 17.341,4.01c0.106,2.282 0.238,4.569 0.396,6.838Z" style="fill:#b2b2d4;fill-rule:nonzero;"/><path d="M1009.46,832.397c-37.808,-3.583 -73.513,-14.42 -105.686,-31.103c0.1,-7.29 -0.049,-14.593 -0.485,-21.946c-5.474,-94.654 -77.221,-165.623 -155.62,-215.393c-0.158,-2.269 -0.29,-4.556 -0.396,-6.838c83.299,20.042 161.739,50.052 230.027,81.7c-18.362,82.02 6.196,149.402 32.16,193.58Z" style="fill:#b27222;fill-rule:nonzero;"/><path d="M691.287,546.251c-22.439,-0 -42.734,14.373 -49.449,36.305c-53.511,174.896 -140.227,608.066 186.321,905.579l381.602,-715.99c-56.296,-39.729 -266.598,-178.998 -508.554,-224.956c-3.328,-0.631 -6.651,-0.938 -9.92,-0.938Zm143.068,997.47c-5.064,0 -10.003,-1.791 -13.934,-5.126c-161.384,-137.223 -252.14,-319.558 -269.739,-541.928c-14.397,-181.899 25.174,-345.415 50.044,-426.694c14.123,-46.143 60.801,-74.1 108.506,-65.028c292.193,55.503 531.32,236.032 541.36,243.693c8.373,6.388 10.886,17.909 5.922,27.202l-403.187,756.485c-3.06,5.748 -8.559,9.804 -14.954,11.01c-1.331,0.262 -2.687,0.386 -4.018,0.386Z" style="fill:#000072;fill-rule:nonzero;"/><path d="M2453.17,1725.27c0,0 -60.5,189.563 -294.851,218.501c0,-0 -210.576,281.701 -602.852,292.201c-392.276,10.575 -492.289,-152.638 -492.289,-152.638c0,-0 -129.61,3.072 -214.494,-93.867l-0.063,-0.063c0,0 29.61,-43.667 54.305,-60.438c0,-0 -69.109,-17.753 -93.805,-45.397c0,-0 29.61,-94.788 22.73,-221.138c-6.519,-118.687 -83.545,-492.525 180.344,-741.992c17.082,-16.21 35.569,-31.811 55.599,-46.803c0,0 -122.556,-111.496 -55.474,-274.338c4.18,-10.137 11.246,-17.876 19.781,-22.914c17.442,-10.38 40.856,-9.459 57.676,5.467c64.196,57.128 186.067,152.71 293.259,162.784c-0,-0 -35.32,-28.686 -45.758,-94.967c-6.582,-42.078 39.798,-72.117 75.243,-48.529c51.543,34.401 123.476,77.154 190.371,98.716c0,-0 224.945,-327.963 430.172,-511.632c78.998,-70.704 203.148,-53.073 258.859,37.163c105.897,171.445 226.176,511.017 77.034,1074.74c0,0 18.425,76.301 17.131,176.363c0,0 24.335,22.046 113.151,30.953c0,0 -8.846,148.048 -104.604,178.64c0,0 6.569,13.2 58.535,39.189Z" style="fill:#fff;fill-rule:nonzero;"/><path d="M2368.96,1300.13c149.142,-563.722 28.863,-903.292 -77.034,-1074.74c-55.711,-90.237 -179.861,-107.867 -258.859,-37.167c-181.104,162.086 -377.534,436.489 -421.214,498.76l759.346,623.545c-1.355,-6.743 -2.239,-10.401 -2.239,-10.401Z" style="fill:#ffa300;fill-rule:nonzero;"/><path d="M2356.18,1241.95c-82.931,58.174 -183.977,92.262 -292.948,92.262c-282.322,0 -511.211,-228.876 -511.211,-511.199c0,-46.803 6.271,-92.139 18.127,-135.198l32.744,12.039c556.721,30.591 713.117,397.371 753.288,542.096Z" style="fill:#ffa300;fill-rule:nonzero;"/><path d="M1322.27,1962.38c-5.935,-0 -11.907,-2.8 -15.564,-8.734c-11.346,-21.299 -13.212,-60.861 -13.523,-72.929c-0.05,-1.941 -1.643,-3.446 -3.571,-3.446l-0.137,0l-25.442,0.946c-2.202,0.074 -3.819,2.127 -3.371,4.292l3.67,17.753c0.485,2.351 -1.393,4.329 -3.546,4.329c-0.522,0 -1.057,-0.112 -1.58,-0.373c-25.218,-12.23 -35.967,-35.755 -39.686,-46.43c-0.821,-2.338 0.933,-4.702 3.321,-4.702c0.162,-0 0.324,0.012 0.486,0.024c5.897,0.797 15.974,1.854 27.37,1.854c13.287,0 28.365,-1.443 40.706,-6.457c26.512,-10.786 40.459,-73.526 42.748,-84.685c0.224,-1.095 0.933,-1.991 1.916,-2.476l59.082,-29.149c0.51,-0.249 1.057,-0.373 1.605,-0.373c0.933,-0 1.853,0.36 2.537,1.082c8.971,9.331 51.407,50.572 107.615,59.181c5.474,0.834 10.998,1.22 16.559,1.22c46.243,-0 93.307,-26.636 111.284,-37.995c0.61,-0.386 1.257,-0.547 1.879,-0.547c2.252,-0 4.304,2.152 3.471,4.566c-20.839,61.147 -53.409,81.587 -72.855,88.417c-8.335,2.924 -11.072,13.3 -5.424,20.093c8.423,10.126 18.027,18.387 21.001,25.205c1.07,2.414 -0.884,4.914 -3.297,4.914c-0.373,0 -0.759,-0.062 -1.145,-0.186l-82.185,-27.259c-7.576,-2.513 -15.526,-3.695 -23.501,-3.695c-0.348,0 -0.696,0 -1.032,0.013c-0.747,-0 -1.493,0.012 -2.227,0.012c-27.097,0 -50.349,-6.233 -63.2,-10.537c-1.244,-0.411 -2.513,-0.61 -3.77,-0.61c-4.417,0 -8.609,2.464 -10.513,6.656c-10.301,22.63 -31.289,34.437 -36.937,37.286c-0.908,0.46 -1.58,1.269 -1.854,2.251l-13.125,47.052c-2.426,8.709 -10.065,13.437 -17.765,13.437Z" style="fill:#b2b2d4;fill-rule:nonzero;"/><path d="M1354.6,2202.41c-209.78,-34.698 -272.395,-129.235 -273.092,-130.332c-3.906,-6.394 -10.898,-10.263 -18.375,-10.263l-0.697,-0c-5.86,-0 -96.666,-0.585 -169.583,-59.605c15.066,3.297 34.101,6.668 57.278,9.356c1.506,0.174 3.011,0.261 4.504,0.261c20.055,-0 37.161,-15.564 38.505,-36.091c0.348,-5.201 0.833,-10.936 1.53,-17.206c0.51,-4.529 4.329,-7.303 8.223,-7.303c2.215,0 4.454,0.896 6.121,2.874c32.023,37.883 128.217,138.542 276.401,179.523c2.787,0.771 5.636,1.157 8.485,1.157c6.021,-0 11.993,-1.717 17.193,-5.001c17.07,-10.774 52.825,-29.087 98.67,-29.087c7.128,-0 14.481,0.448 22.045,1.419c1.481,0.198 2.961,0.285 4.442,0.285c7.253,0 14.332,-2.301 20.042,-6.905c20.851,-16.795 71.299,-51.157 134.848,-51.157c10.948,0 22.281,1.02 33.926,3.334c2.24,0.436 4.504,0.66 6.743,0.66c7.415,-0 14.656,-2.414 20.465,-7.241c41.416,-34.374 189.078,-147.127 425.269,-221.101c74.597,-23.364 114.62,-105.176 84.624,-177.358c-9.703,-23.352 -23.351,-48.495 -42.386,-74.733c-7.166,-9.866 -0.249,-23.812 11.881,-23.812l0.199,0c17.268,0.211 41.093,2.862 68.214,12.429c2.239,0.783 4.479,1.156 6.644,1.156c12.378,0 22.617,-11.906 18.885,-24.919c-8.124,-28.415 -24.546,-69.371 -57.44,-111.769c-20.901,-26.972 -35.83,-57.789 -44.103,-90.334c69.793,-8.273 135.283,-30.617 193.544,-64.133l27.345,22.468c0.995,4.914 1.941,9.89 2.849,14.942c0.075,0.41 0.162,0.808 0.261,1.206c0.175,0.747 17.766,75.193 16.51,171.076c-0.075,6.171 2.5,12.08 7.066,16.223c4.528,4.093 29.46,23.551 103.72,33.802c-6.071,38.356 -26.014,119.819 -87.273,139.401c-5.984,1.916 -10.836,6.345 -13.262,12.13c-2.451,5.785 -2.239,12.354 0.572,17.965c3.869,7.738 16.024,20.59 50.672,39.612c-4.74,10.463 -12.204,25.019 -23.14,41.478l-17.057,9.928c-47.748,5.151 -400.362,52.687 -749.169,359.233c-21.436,-13.1 -46.343,-20.179 -71.387,-20.179c-21.61,-0 -43.332,5.287 -62.976,16.509c-0.037,0.025 -0.075,0.05 -0.112,0.062c-0.025,0.025 -0.05,0.037 -0.075,0.05c-13.573,7.788 -26.15,18.425 -37.036,32.135c-0.013,0.012 -0.025,0.037 -0.038,0.049c-0.087,0.1 -0.174,0.224 -0.261,0.324c-0.012,0.025 -0.037,0.05 -0.062,0.075c-0.46,0.597 -0.921,1.194 -1.381,1.791c-0.05,0.075 -0.112,0.149 -0.162,0.212c-1.717,2.276 -3.446,4.615 -5.163,7.004c0,-0 -18.076,-5.051 -40.197,-5.051l-0.062,-0c-5.959,-0 -12.204,0.373 -18.475,1.294c-0.161,0.025 -0.323,0.05 -0.485,0.074c-16.21,2.451 -32.521,8.684 -44.227,22.083Z" style="fill:#b2b2d4;fill-rule:nonzero;"/><path d="M2344.95,1288.98l-27.345,-22.468c6.631,-3.82 13.187,-7.789 19.632,-11.894c2.749,11.073 5.337,22.531 7.713,34.362Z" style="fill:#b27222;fill-rule:nonzero;"/><path d="M2124.06,1330.64c-6.967,-27.395 -9.22,-55.997 -6.37,-84.561c12.379,-124.298 -4.405,-331.254 -212.094,-467.781c20.789,7.328 41.242,15.539 61.285,24.646c24.11,11.209 47.823,23.352 70.44,37.31c11.508,6.656 22.419,14.245 33.529,21.523c10.76,7.788 21.722,15.302 32.048,23.663c42,32.508 79.759,70.453 112.727,112.043c16.447,20.826 31.65,42.648 45.373,65.278c2.276,3.807 4.516,7.626 6.718,11.458l-0.088,0.062c0.486,0.797 42.548,71.274 69.608,180.332c-6.445,4.105 -13.001,8.074 -19.632,11.894c-58.261,33.516 -123.751,55.86 -193.544,64.133Z" style="fill:#b27222;fill-rule:nonzero;"/><path d="M1190.02,982.31c-67.119,0 -124.459,-27.581 -159.543,-49.602c15.502,-14.419 32.21,-28.415 50.199,-41.876c5.114,-3.832 8.236,-9.766 8.56,-16.149c0.323,-6.382 -2.24,-12.602 -6.942,-16.932c-4.529,-4.167 -110.377,-103.894 -50.088,-250.237c0.821,-2.006 1.867,-3.868 3.098,-5.566c35.594,238.149 210.053,276.343 303.261,279.367c21.249,0.696 29.734,27.569 13.125,40.855c-55.859,44.714 -111.496,60.14 -161.67,60.14Z" style="fill:#b2b2d4;fill-rule:nonzero;"/><path d="M1063.13,2061.81c7.477,-0 14.469,3.869 18.375,10.263c0.883,1.382 101.008,152.552 473.391,142.425c377.496,-10.127 584.191,-280.868 586.231,-283.605c3.508,-4.677 8.771,-7.738 14.581,-8.46c179.635,-22.194 250.063,-142.262 270.354,-187.099c-34.648,-19.022 -46.803,-31.874 -50.672,-39.612c-2.811,-5.611 -3.023,-12.18 -0.572,-17.965c2.426,-5.785 7.278,-10.214 13.262,-12.13c61.259,-19.582 81.202,-101.045 87.273,-139.401c-74.26,-10.251 -99.192,-29.709 -103.72,-33.802c-4.566,-4.143 -7.141,-10.052 -7.066,-16.223c1.256,-95.883 -16.335,-170.329 -16.51,-171.076c-0.833,-3.458 -0.796,-7.079 0.112,-10.525c143.494,-542.351 38.679,-874.651 -74.521,-1057.91c-23.153,-37.472 -61.508,-62.592 -105.251,-68.92c-43.879,-6.345 -88.007,6.943 -121,36.475c-200.872,179.813 -424.573,504.523 -426.8,507.783c-5.387,7.833 -15.253,11.228 -24.335,8.298c-70.154,-22.629 -145.124,-67.563 -195.671,-101.274c-9.231,-6.16 -20.316,-6.259 -29.672,-0.27c-9.505,6.083 -14.133,16.38 -12.379,27.544c8.858,56.332 37.025,80.724 38.207,81.733c7.178,6.069 9.666,16.161 6.021,24.814c-3.633,8.671 -12.441,14.033 -21.734,13.15c-113.574,-10.674 -240.186,-109.912 -305.551,-168.121c-6.718,-5.994 -15.65,-8.277 -24.471,-6.247c-8.621,1.983 -15.476,7.762 -18.811,15.858c-60.289,146.343 45.559,246.07 50.088,250.237c4.702,4.33 7.265,10.55 6.942,16.932c-0.324,6.383 -3.446,12.317 -8.56,16.149c-282.733,211.621 -248.558,552.379 -232.136,716.139c2.128,21.199 3.957,39.488 4.765,54.267c5.599,102.415 -11.868,184.065 -19.893,215.217c19.023,13.822 54.143,26.337 74.87,31.699c8.174,2.103 14.369,8.809 15.812,17.132c1.444,8.322 -2.102,16.708 -9.082,21.46c-12.366,8.41 -27.867,26.873 -38.529,40.869c75.591,74.21 181.601,74.21 186.104,74.198l0.548,-0Zm456.309,196.169c-320.603,0.012 -438.743,-117.517 -467.344,-153.396c-35.432,-1.631 -143.37,-13.898 -219.646,-101.009c-6.444,-7.366 -7.116,-18.139 -1.617,-26.238c2.065,-3.049 14.668,-21.386 30.58,-39.115c-23.464,-8.82 -52.352,-22.456 -68.327,-40.358c-5.025,-5.636 -6.729,-13.511 -4.478,-20.727c0.273,-0.896 28.353,-92.959 21.76,-213.549c-0.747,-13.797 -2.551,-31.65 -4.616,-52.327c-16.859,-167.99 -51.518,-513.724 230.519,-740.399c-33.404,-40.67 -99.516,-144.558 -43.818,-279.728c8.709,-21.149 26.537,-36.231 48.906,-41.383c22.269,-5.125 45.696,0.881 62.727,16.038c51.344,45.723 142.35,118.334 230.021,146.508c-7.502,-15.699 -14.282,-35.366 -18.039,-59.291c-4.417,-28.114 7.713,-55.108 31.662,-70.44c23.812,-15.247 53.21,-14.962 76.711,0.711c44.638,29.764 108.921,68.592 170.081,90.972c44.936,-63.903 243.096,-339.931 424.199,-502.043c42.499,-38.046 99.341,-55.168 155.836,-46.994c56.37,8.155 105.822,40.551 135.668,88.879c69.894,113.153 116.037,247.253 137.149,398.575c28.602,205.036 9.667,436.425 -56.282,687.832c4.018,18.612 16.372,82.297 16.546,163.947c12.105,5.885 39.973,16.199 93.768,21.585c11.495,1.145 20.017,11.16 19.333,22.68c-0.361,5.897 -8.746,129.66 -86.34,181.8c7.103,4.33 16.372,9.505 28.415,15.526c9.48,4.74 14.095,15.676 10.861,25.778c-2.6,8.174 -65.987,198.272 -303.808,232.124c-37.137,45.994 -246.506,283.691 -613.813,293.544c-12.478,0.336 -24.708,0.498 -36.614,0.498Z" style="fill:#000072;fill-rule:nonzero;"/><path d="M1046.63,2097.03c-4.69,-7.477 -7.763,-14.008 -10.824,-21.274c-3.035,-7.079 -5.698,-14.257 -7.9,-21.585c-2.177,-7.328 -4.192,-14.655 -5.486,-22.182c-1.356,-7.477 -1.829,-15.24 -1.369,-23.053c11.346,10.923 20.055,21.958 29.821,32.209c4.803,5.138 9.655,10.127 14.531,14.968l7.341,7.078c2.351,2.228 5.063,4.753 6.979,6.382l-33.093,27.457Z" style="fill:#000072;fill-rule:nonzero;"/><path d="M2387.17,1706.28c-9.219,-4.006 -17.418,-8.398 -25.679,-13.461c-8.198,-4.952 -16.123,-10.438 -23.849,-16.161c-15.315,-11.657 -30.02,-24.621 -41.739,-40.234c18.723,5.275 36.414,10.226 54.205,14.904l26.387,7.116c8.672,2.302 17.542,4.977 25.579,7.502l-14.904,40.334Z" style="fill:#000072;fill-rule:nonzero;"/><path d="M2378.23,1496.51c-12.727,-5.835 -24.335,-12.192 -36.054,-19.097c-11.67,-6.805 -23.078,-14.071 -34.126,-21.971c-11.047,-7.863 -21.871,-16.061 -31.923,-25.342c-9.916,-9.356 -19.52,-19.234 -26.96,-30.617c11.918,6.469 23.75,11.98 35.793,17.044c11.918,5.188 24.073,9.853 36.141,14.493c12.117,4.566 24.347,8.834 36.514,13.138l36.29,12.317l-15.675,40.035Z" style="fill:#000072;fill-rule:nonzero;"/><path d="M2347.8,1303.92c-24.683,-136.677 -79.622,-228.728 -80.17,-229.636l36.801,-22.232c2.426,4.006 59.604,99.827 85.693,244.229l-42.324,7.639Z" style="fill:#000072;fill-rule:nonzero;"/><path d="M1837.99,743.305c-4.118,5.629 -8.87,10.838 -13.797,15.926c-4.989,5.064 -10.152,10.003 -15.576,14.768c-10.811,9.554 -22.033,18.848 -34.635,27.22c2.761,-14.879 6.892,-28.85 11.433,-42.535c2.252,-6.868 4.765,-13.556 7.464,-20.125c2.75,-6.53 5.673,-12.948 9.232,-18.951l35.879,23.697Z" style="fill:#000072;fill-rule:nonzero;"/><path d="M1811.46,1405.44c10.5,29.796 0.871,60.339 -21.498,68.226c-22.382,7.888 -49.03,-9.866 -59.53,-39.662c-10.501,-29.783 -0.884,-60.326 21.498,-68.214c22.369,-7.887 49.029,9.866 59.53,39.65Z" style="fill:#fff;fill-rule:nonzero;"/><path d="M1181.87,1481.53c-14.431,-11.608 -28.502,-22.083 -42.909,-31.662c-14.419,-9.505 -29.136,-17.891 -44.352,-24.882c-7.489,-3.82 -15.439,-6.308 -23.127,-9.692c-8.012,-2.227 -15.788,-5.698 -24.061,-7.477c-16.335,-5.2 -33.317,-7.377 -51.804,-11.844c17.131,-7.29 36.302,-10.985 55.275,-9.343c9.604,0.137 18.885,2.551 28.253,4.566c9.07,2.986 18.226,5.959 26.636,10.488c17.094,8.472 32.683,19.731 45.708,33.254c6.445,6.843 12.454,14.021 17.58,21.834c5.162,7.739 9.753,15.925 12.801,24.758Z" style="fill:#000072;fill-rule:nonzero;"/><path d="M1520.21,1272.46c0.248,-27.681 8.547,-54.416 20.589,-79.224c12.317,-24.708 29.175,-47.748 50.498,-66.497c21.113,-18.873 46.754,-33.316 74.099,-40.806c27.295,-7.564 56.158,-7.975 82.533,-0.386c-25.939,9.231 -49.502,17.99 -70.951,29.884c-21.498,11.607 -40.943,25.491 -58.932,41.49c-18.09,15.875 -34.611,33.964 -50.561,53.335c-15.974,19.457 -31.202,40.047 -47.275,62.204Z" style="fill:#000072;fill-rule:nonzero;"/><path d="M1390.74,1781.68c-23.638,10.089 -49.963,12.864 -72.295,0.161c-0.323,-0.186 -0.647,-0.373 -0.983,-0.56c-32.595,-18.96 -80.356,-83.404 34.126,-116.758c107.838,-31.426 138.244,74.895 39.152,117.157Z" style="fill:#000072;fill-rule:nonzero;"/><path d="M1393.25,1764.15c-0.411,6.158 -0.996,11.135 -1.867,16.572c-0.858,5.312 -1.791,10.612 -3.035,15.849c-2.439,10.5 -5.511,20.939 -9.617,31.215c-3.981,10.313 -9.02,20.453 -15.427,30.219c-6.332,9.778 -14.344,19.196 -24.645,26.872c-10.152,7.701 -22.917,13.486 -36.017,14.793c-13.088,1.505 -25.541,-0.797 -36.514,-4.554c-11.197,-3.632 -20.416,-10.064 -28.677,-17.069c-3.993,-3.657 -7.551,-7.8 -11.022,-11.831c-3.11,-4.504 -6.196,-8.883 -8.585,-13.922c5.661,0.821 10.625,2.302 15.564,3.658c4.927,1.294 9.766,2.538 14.32,3.981c9.318,2.252 17.977,5.026 26.213,6.134c8.186,1.356 15.974,1.269 22.58,-0.71c6.594,-2.04 12.292,-5.411 17.43,-10.438c5.113,-5.026 9.604,-11.495 13.598,-18.711c3.919,-7.265 7.166,-15.339 10.127,-23.675c2.824,-8.41 5.325,-17.131 7.427,-26.027c0.97,-4.466 2.09,-8.907 2.924,-13.411c0.858,-4.366 1.779,-9.256 2.413,-12.988l42.81,4.043Z" style="fill:#000072;fill-rule:nonzero;"/><path d="M1387.78,1751.73c1.405,1.53 3.831,3.981 5.884,5.972l6.606,6.22c4.516,4.118 9.219,8.037 13.947,11.894c9.592,7.551 19.594,14.506 30.069,20.341c20.852,11.781 43.482,19.395 66.597,19.868c11.57,0.373 23.215,-1.281 34.636,-4.616c5.81,-1.38 11.259,-4.031 17.019,-6.046c5.474,-2.687 11.184,-5.076 16.509,-8.397c21.908,-12.218 42.486,-28.814 63.312,-46.691c-10.786,25.255 -27.183,48.382 -49.129,66.982c-5.325,4.839 -11.521,8.659 -17.505,12.864c-6.332,3.682 -12.727,7.427 -19.681,10.139c-13.661,5.835 -28.503,10.065 -43.743,11.185c-15.19,1.206 -30.58,0.049 -45.347,-3.16c-14.73,-3.347 -28.9,-8.473 -42.138,-15.042c-13.224,-6.606 -25.69,-14.382 -37.223,-23.252c-5.773,-4.441 -11.359,-9.094 -16.708,-14.033c-2.675,-2.488 -5.325,-5.002 -7.888,-7.664c-2.65,-2.762 -4.902,-5.113 -7.9,-8.622l32.683,-27.942Z" style="fill:#000072;fill-rule:nonzero;"/><path d="M1272.38,1891.71c4.591,12.678 13.088,29.809 28.179,43.855c2.712,-12.565 6.594,-29.473 10.973,-45.099c-10.189,2.613 -23.066,3.621 -39.152,1.244Zm36.291,77.682c-2.227,-0 -4.454,-0.61 -6.42,-1.804c-50.262,-30.816 -58.821,-88.057 -59.157,-90.471c-0.585,-4.118 0.958,-8.248 4.093,-10.973c3.148,-2.724 7.452,-3.67 11.434,-2.55c50.385,14.32 64.755,-7.004 65.352,-7.913c3.297,-5.797 10.562,-7.763 16.434,-4.59c5.873,3.172 8.062,10.575 5.014,16.521c-9.343,18.301 -20.988,72.469 -24.683,91.802c-0.759,3.956 -3.409,7.303 -7.104,8.933c-1.58,0.696 -3.272,1.045 -4.963,1.045Z" style="fill:#000072;fill-rule:nonzero;"/><path d="M1528.9,1845.5c9.517,11.607 26.374,27.183 54.366,39.301c4.255,-10.625 9.369,-31.252 3.111,-61.26c-12.566,8.659 -32.185,18.923 -57.477,21.959Zm60.139,67.119c-1.406,-0 -2.849,-0.237 -4.23,-0.747c-68.773,-25.267 -88.468,-71.361 -89.264,-73.314c-1.617,-3.907 -1.107,-8.373 1.356,-11.819c2.464,-3.446 6.495,-5.4 10.749,-5.126c47.027,2.924 76.413,-27.693 76.699,-28.004c2.973,-3.173 7.402,-4.542 11.632,-3.584c4.23,0.946 7.664,4.056 9.007,8.187c22.394,68.711 -4.802,107.676 -5.971,109.293c-2.352,3.285 -6.109,5.114 -9.978,5.114Z" style="fill:#000072;fill-rule:nonzero;"/><path d="M1621.32,710.891c-5.698,8.059 -11.868,15.835 -18.101,23.568c-6.196,7.759 -12.727,15.322 -19.246,22.881c-6.631,7.502 -13.275,14.992 -20.242,22.295c-6.942,7.315 -13.934,14.593 -21.411,21.584c2.613,-9.903 5.698,-19.507 8.858,-29.086c3.123,-9.592 6.569,-18.998 10.04,-28.387c3.558,-9.334 7.116,-18.665 11.023,-27.794c3.844,-9.158 7.775,-18.276 12.167,-27.112l36.912,22.051Z" style="fill:#000072;fill-rule:nonzero;"/><path d="M1083.49,858.933c1.107,1.207 3.26,3.372 5.076,5.063l5.86,5.388c3.968,3.595 8.161,7.053 12.453,10.35c8.634,6.557 17.641,12.703 26.997,18.251c18.773,11.011 39.214,18.873 60.5,23.501c10.675,2.103 21.573,3.285 32.596,3.608c11.047,0.361 22.082,-0.97 33.242,-2.438c22.232,-3.608 44.339,-10.388 67.218,-18.438c-17.131,17.169 -38.604,30.107 -62.192,38.393c-23.687,7.875 -49.415,11.222 -74.982,9.244c-25.591,-1.978 -50.672,-9.194 -73.911,-19.893c-11.67,-5.3 -22.842,-11.595 -33.442,-18.799c-5.324,-3.583 -10.525,-7.34 -15.601,-11.358c-2.562,-1.978 -5.051,-4.056 -7.514,-6.258c-2.563,-2.277 -4.703,-4.193 -7.701,-7.241l31.401,-29.373Z" style="fill:#000072;fill-rule:nonzero;"/><path d="M1714.49,1309.94c60.873,-14.954 126.823,40.508 147.301,123.887c20.478,83.367 -12.267,163.076 -73.141,178.03c-60.873,14.954 -126.823,-40.507 -147.301,-123.887c-20.478,-83.367 12.267,-163.076 73.141,-178.03Z" style="fill:#000072;fill-rule:nonzero;"/><path d="M1727.49,1348.67c23.326,-5.723 47.474,10.948 53.931,37.248c6.457,26.3 -7.216,52.264 -30.53,58c-23.327,5.722 -47.475,-10.948 -53.932,-37.248c-6.456,-26.301 7.204,-52.265 30.531,-58Z" style="fill:#fff;fill-rule:nonzero;"/><path d="M1802.66,1556.36c-14.22,0 -27.134,-9.654 -30.679,-24.085c-4.168,-16.958 6.208,-34.089 23.165,-38.256c2.537,-0.622 5.075,-0.921 7.564,-0.921c14.22,-0 27.146,9.667 30.692,24.086c4.167,16.969 -6.208,34.088 -23.165,38.255c-2.538,0.623 -5.077,0.921 -7.577,0.921Z" style="fill:#4d4d9d;fill-rule:nonzero;"/><path d="M1072.92,1494.4c56.295,-13.822 117.281,37.472 136.216,114.569c18.947,77.097 -11.334,150.809 -67.629,164.631c-56.296,13.835 -117.281,-37.46 -136.216,-114.556c-18.948,-77.097 11.333,-150.809 67.629,-164.644Z" style="fill:#000072;fill-rule:nonzero;"/><path d="M1084.95,1530.22c21.573,-5.3 43.892,10.127 49.876,34.449c5.972,24.322 -6.668,48.333 -28.241,53.633c-21.573,5.3 -43.892,-10.127 -49.876,-34.449c-5.971,-24.322 6.668,-48.334 28.241,-53.633Z" style="fill:#fff;fill-rule:nonzero;"/><path d="M1154.47,1722.29c-13.15,0 -25.106,-8.932 -28.378,-22.269c-3.856,-15.688 5.736,-31.525 21.424,-35.382c2.339,-0.572 4.69,-0.846 6.991,-0.846c13.163,-0 25.106,8.932 28.378,22.269c3.857,15.688 -5.735,31.526 -21.423,35.382c-2.339,0.573 -4.69,0.846 -6.992,0.846Z" style="fill:#4d4d9d;fill-rule:nonzero;"/><path d="M1820.05,731.457c0,-0 165.789,-256.355 285.67,-398.431c27.283,-32.33 78.602,-26.785 98.507,10.535c56.918,106.674 171.711,401.49 112.205,781.422c0,0 -110.699,-307.964 -496.382,-393.526Z" style="fill:#ffc2de;fill-rule:nonzero;"/><path d="M2296.2,1132.25c-1.94,-5.076 -4.665,-11.471 -7.327,-17.244c-2.712,-5.909 -5.599,-11.806 -8.584,-17.666c-6.01,-11.694 -12.491,-23.214 -19.296,-34.573c-13.723,-22.63 -28.926,-44.452 -45.373,-65.278c-32.968,-41.59 -70.727,-79.535 -112.727,-112.043c-10.326,-8.361 -21.288,-15.875 -32.048,-23.663c-11.11,-7.278 -22.021,-14.867 -33.529,-21.523c-22.617,-13.958 -46.33,-26.101 -70.44,-37.31c-48.458,-22.008 -99.317,-38.828 -151.469,-50.498l-0.013,-0c-11.557,-2.501 -18.897,-13.889 -16.397,-25.447c0.498,-2.308 1.344,-4.446 2.488,-6.376l0.511,-0.847c38.206,-63.995 78.626,-126.201 120.863,-187.477c20.939,-30.735 42.648,-60.974 64.718,-91.008c22.145,-30.009 44.601,-59.786 68.474,-88.754c5.811,-7.329 11.92,-14.503 17.966,-21.71l9.07,-10.804c2.426,-3.014 7.538,-8.696 12.366,-12.86c9.965,-8.654 22.158,-15.026 35.009,-18.055c12.851,-3.033 26.25,-3.003 38.94,-0.048c12.702,2.937 24.733,8.853 34.773,17.232c4.963,4.209 9.554,8.906 13.386,14.131c2.09,2.497 3.658,5.298 5.325,8.05l2.376,4.097l1.605,3.225c8.609,17.181 16.41,34.519 23.7,52.024c14.581,34.988 26.188,71.008 34.436,107.789c8.212,36.771 13.561,74.191 13.686,112.166c-16.621,-34.148 -30.891,-68.19 -45.422,-101.891c-14.631,-33.632 -28.851,-67.101 -44.066,-99.907c-7.589,-16.396 -15.626,-32.545 -24.223,-48.147l-1.605,-2.932l-1.231,-1.822c-0.809,-1.163 -1.456,-2.455 -2.476,-3.408c-1.729,-2.191 -3.77,-4.025 -5.91,-5.713c-4.329,-3.296 -9.467,-5.543 -14.854,-6.536c-10.911,-2.029 -22.095,1.199 -29.784,8.319c-2.849,2.396 -9.679,11.259 -15.167,17.998c-5.721,7.089 -11.481,14.122 -17.03,21.414l-16.783,21.689l-16.509,22.006c-11.147,14.541 -21.996,29.402 -32.969,44.127l-64.643,89.565l-127.918,180.592l-13.386,-32.668l0.012,0.006c54.865,12.282 108.66,30.032 160.053,53.376c25.579,11.881 50.747,24.807 74.808,39.637c12.229,7.091 23.848,15.14 35.667,22.891c11.459,8.273 23.104,16.285 34.102,25.181c44.712,34.623 84.909,74.981 120.018,119.284c17.517,22.207 33.727,45.459 48.432,69.694c7.291,12.167 14.258,24.546 20.777,37.236c3.234,6.357 6.382,12.777 9.38,19.321c3.048,6.693 5.773,12.876 8.696,20.614l-40.458,14.544Z" style="fill:#000072;fill-rule:nonzero;"/><path d="M2368.19,1204.72c-10.612,-35.407 -22.207,-65.713 -32.583,-89.761c-2.525,-6.495 -4.964,-11.981 -7.639,-17.865c-1.891,-4.131 -3.844,-8.212 -5.847,-12.267c1.729,-13.573 3.235,-27.047 4.528,-40.384c25.567,59.779 36.888,115.913 41.541,160.277Z" style="fill:#b27222;fill-rule:nonzero;"/><path d="M2368.96,1300.1c-10.587,-63.984 -30.978,-122.319 -55.773,-173.962l23.476,-8.435c-0.348,-0.933 -0.709,-1.853 -1.057,-2.749c10.376,24.048 21.971,54.354 32.583,89.761c6.021,57.627 0.771,95.385 0.771,95.385Z" style="fill:#000072;fill-rule:nonzero;"/><path d="M2322.12,1084.82c-1.169,-2.364 -2.351,-4.715 -3.533,-7.054c-6.519,-12.69 -13.486,-25.069 -20.777,-37.236c-14.705,-24.235 -30.915,-47.487 -48.432,-69.694c-35.109,-44.303 -75.306,-84.661 -120.018,-119.284c-2.24,-1.804 -4.492,-3.583 -6.781,-5.325c9.443,-47.052 5.337,-83.603 -4.267,-111.38c-17.193,-52.604 -53.72,-72.624 -58.759,-75.177c-0.374,-0.2 -0.559,-0.299 -0.559,-0.299c7.662,-46.37 -5.661,-74.265 -25.504,-91.017c-15.303,-16.297 -34.599,-24.958 -50.337,-29.557l47.512,-65.825c10.973,-14.725 21.822,-29.586 32.969,-44.127l16.509,-22.006l16.783,-21.689c5.549,-7.292 11.309,-14.325 17.03,-21.414c5.488,-6.739 12.318,-15.602 15.167,-17.998c6.159,-5.71 14.581,-8.916 23.302,-8.916c2.153,-0 4.317,0.195 6.482,0.597c5.387,0.993 10.525,3.24 14.854,6.536c2.14,1.688 4.181,3.522 5.91,5.713c1.02,0.953 1.667,2.245 2.476,3.408l1.231,1.822l1.605,2.932c8.597,15.602 16.634,31.751 24.223,48.147c15.215,32.806 29.435,66.275 44.066,99.907c14.493,33.628 28.738,67.596 45.31,101.671c-48.197,-90.99 -96.132,-165.286 -122.084,-203.824c-4.64,-6.879 -11.993,-10.307 -19.358,-10.307c-7.464,0 -14.917,3.512 -19.557,10.512l-60.836,91.886c-7.129,10.765 -4.317,25.488 6.581,32.41c35.768,22.715 38.405,61.825 37.647,79.094c-0.262,5.841 1.691,11.511 5.374,16.051c81.177,100.029 70.963,181.571 62.727,212.188c-2.227,8.273 0.199,17.106 6.445,22.966c63.959,59.928 104.989,124.82 131.127,185.905c-1.293,13.337 -2.799,26.811 -4.528,40.384Z" style="fill:#b287bd;fill-rule:nonzero;"/><path d="M2313.19,1126.14c-76.96,-160.289 -196.318,-256.047 -196.318,-256.047c0.062,-0.261 0.124,-0.511 0.186,-0.759c2.202,-7.975 4.031,-15.663 5.524,-23.103c2.289,1.742 4.541,3.521 6.781,5.325c44.712,34.623 84.909,74.981 120.018,119.284c17.517,22.207 33.727,45.459 48.432,69.694c7.291,12.167 14.258,24.546 20.777,37.236c1.182,2.339 2.364,4.69 3.533,7.054c2.003,4.055 3.956,8.136 5.847,12.267c2.675,5.884 5.114,11.37 7.639,17.865c0.348,0.896 0.709,1.816 1.057,2.749l-23.476,8.435Zm-14.506,-518.391c-0.025,-0.061 -0.062,-0.13 -0.099,-0.19c-16.572,-34.075 -30.817,-68.043 -45.31,-101.671c-14.631,-33.632 -28.851,-67.101 -44.066,-99.907c-7.589,-16.396 -15.626,-32.545 -24.223,-48.147l-1.605,-2.932l-1.231,-1.822c-0.809,-1.163 -1.456,-2.455 -2.476,-3.408c-1.729,-2.191 -3.77,-4.025 -5.91,-5.713c-4.329,-3.296 -9.467,-5.543 -14.854,-6.536c-2.165,-0.402 -4.329,-0.597 -6.482,-0.597c-8.721,-0 -17.143,3.206 -23.302,8.916c-2.849,2.396 -9.679,11.259 -15.167,17.998c-5.721,7.089 -11.481,14.122 -17.03,21.414l-16.783,21.689l-16.509,22.006c-11.147,14.541 -21.996,29.402 -32.969,44.127l-47.512,65.825c-16.471,-4.814 -29.049,-5.173 -29.049,-5.173c-0,0 126.585,-214.834 204.567,-221.8c0.895,-0.079 1.779,-0.118 2.662,-0.118c76.736,-0 137.348,296.039 137.348,296.039Z" style="fill:#000072;fill-rule:nonzero;"/><path d="M2116.86,870.068c0,-0 -3.682,-3.683 -10.873,-9.94c-31.875,-27.707 -132.807,-105.289 -285.943,-128.697l127.035,-187.785c-0,-0 11.296,-0.799 26.773,1.107c37.534,4.791 99.826,25.861 85.146,114.622c-0,0 101.966,52.214 57.862,210.693Z" style="fill:#fff;fill-rule:nonzero;"/><path d="M2105.98,860.128c-31.875,-27.707 -132.807,-105.289 -285.943,-128.697l127.035,-187.785c-0,-0 2.351,-0.166 6.369,-0.166c4.803,0 11.994,0.236 20.404,1.273l-45.273,88.302c-7.552,14.715 -1.991,33.192 12.901,40.366c13.822,6.652 28.129,18.389 31.961,38.925c2.177,11.711 10.898,21.043 22.195,24.837c33.715,11.328 96.355,42.837 110.351,122.945Z" style="fill:#b2b2d4;fill-rule:nonzero;"/><path d="M1856.34,716.178c120.913,25.307 205.898,81.371 247.264,114.004c17.318,-111.899 -51.381,-150.024 -54.579,-151.734c-8.148,-4.337 -12.777,-13.467 -11.271,-22.568c4.827,-29.167 0.448,-51.427 -12.989,-66.158c-18.325,-20.081 -50.174,-23.992 -66.26,-24.627l-102.165,151.083Zm260.526,175.413c-5.648,-0 -11.16,-2.24 -15.253,-6.358c-1.021,-1.02 -107.067,-105.4 -284.798,-132.521c-7.291,-1.119 -13.499,-5.884 -16.46,-12.64c-2.961,-6.754 -2.239,-14.551 1.891,-20.659l127.01,-187.814c3.695,-5.459 9.679,-8.924 16.248,-9.402c2.874,-0.206 71.598,-4.671 111.023,38.539c20.267,22.214 28.8,51.881 25.442,88.336c29.211,22.384 93.768,89.579 55.611,226.768c-2.053,7.39 -7.875,13.113 -15.278,15.054c-1.803,0.46 -3.62,0.697 -5.436,0.697Z" style="fill:#000072;fill-rule:nonzero;"/><path d="M2852.03,3859.02c-154.006,98.719 -280.357,10.5 -468.576,-39.5c-188.282,-50 -148.719,-204.554 -148.719,-204.554c-0,-0 113.15,-139.003 457.952,-108.237c10.251,0.921 20.204,2.028 29.846,3.26c131.824,17.081 202.103,64.68 228.08,121.262c35.755,77.706 -12.093,172.295 -98.583,227.769Z" style="fill:#fff;fill-rule:nonzero;"/><path d="M2705.5,3882.5c-59.543,-0.012 -120.653,-20.689 -193.296,-45.272c-38.84,-13.138 -78.987,-26.724 -123.252,-38.493c-130.481,-34.673 -138.754,-123.153 -135.905,-161.036c17.206,0.647 34.76,0.996 52.613,0.996c79.273,-0 164.967,-6.768 255.661,-23.427c57.913,-10.637 107.241,-42.336 141.305,-86.004c3.77,0.398 7.502,0.821 11.184,1.269c-30.803,65.128 -98.955,142.859 -248.894,142.859c-24.098,0 -50.311,-2.015 -78.826,-6.407c-1.256,-0.186 -2.5,-0.286 -3.732,-0.286c-13.125,0 -24.223,10.699 -23.824,24.273c0.485,16.534 6.419,36.364 28.85,47.599c43.432,21.734 236.926,74.384 268.501,102.028c6.32,5.524 13.884,8.161 21.249,8.161c29.461,0 55.935,-42.175 -11.047,-110.189c-0,-0 65.688,5.237 103.123,45.67c12.802,13.822 30.443,21.772 48.37,21.772c8.037,0 16.111,-1.592 23.85,-4.976c29.97,-13.088 57.29,-40.545 35.967,-98.035c-0,-0 41.067,-5.375 61.819,-37.199c11.134,60.028 -27.831,129.623 -98.781,175.107c-46.878,30.057 -90.459,41.59 -134.935,41.59Z" style="fill:#b2b2d4;fill-rule:nonzero;"/><path d="M2254.57,3625.23c-4.329,25.069 -13.996,134.077 134.388,173.502c44.265,11.769 84.412,25.355 123.252,38.493c126.898,42.946 218.588,73.986 328.231,3.682c73.351,-47.027 112.528,-119.831 97.474,-181.178c-17.716,-72.232 -105.487,-118.985 -247.102,-131.613c-296.506,-26.437 -415.802,76.711 -436.243,97.114Zm451.321,300.027c-67.716,-0 -134.76,-22.693 -207.465,-47.301c-38.169,-12.914 -77.632,-26.275 -120.503,-37.659c-206.433,-54.864 -164.482,-228.901 -164.022,-230.643c0.759,-3.023 2.19,-5.834 4.143,-8.248c4.927,-6.034 124.447,-147.5 476.576,-116.112c217.742,19.408 272.059,111.21 285.06,164.196c19.42,79.2 -27.196,170.678 -116.025,227.62c-54.777,35.109 -106.47,48.147 -157.764,48.147Z" style="fill:#000072;fill-rule:nonzero;"/><path d="M2732.19,3891.79l0.522,-1.618c0.236,-0.684 0.46,-1.43 0.66,-2.264c0.398,-1.617 0.945,-3.172 1.269,-4.889c0.845,-3.334 1.393,-6.781 2.027,-10.227c0.398,-3.471 0.859,-6.967 1.12,-10.463c-0.025,-3.483 0.498,-7.054 0.137,-10.537c-0.349,-14.058 -3.372,-28.079 -9.269,-41.54c-3.433,-6.433 -6.568,-13.3 -11.296,-19.334c-4.006,-6.581 -9.443,-12.179 -14.581,-18.338c-5.237,-6.071 -11.558,-11.184 -17.318,-17.33c-6.37,-5.287 -12.889,-10.662 -19.345,-16.696c8.397,1.829 16.882,4.081 25.255,6.818c4.031,1.692 8.062,3.483 12.08,5.374c4.006,1.929 8.261,3.521 11.881,6.183c3.757,2.464 7.601,4.89 11.359,7.478l2.811,1.953l2.576,2.289l5.163,4.603c7.215,5.91 12.789,13.573 18.785,21c10.961,15.688 18.376,34.35 21.324,53.733c1.444,9.691 1.792,19.532 1.095,29.323c-0.473,4.877 -0.945,9.779 -1.991,14.656c-0.41,2.426 -1.007,4.914 -1.666,7.365c-0.299,1.207 -0.66,2.476 -1.095,3.782c-0.399,1.269 -0.759,2.5 -1.468,4.367l-40.035,-15.688Z" style="fill:#000072;fill-rule:nonzero;"/><path d="M2899.34,3798.46l-1.916,-10.985l-2.202,-11.558c-1.604,-7.688 -3.172,-15.414 -5.163,-22.99c-1.903,-7.602 -3.931,-15.141 -6.431,-22.481c-2.265,-7.44 -4.939,-14.693 -8.05,-21.672c-5.922,-14.196 -13.735,-27.06 -23.015,-39.09c-4.716,-5.959 -9.866,-11.694 -15.626,-17.405c-5.873,-5.561 -12.441,-10.749 -19.782,-16.385c9.057,-1.306 18.463,-0.609 27.607,1.755c9.094,2.463 17.84,6.556 25.865,11.806c15.899,10.724 28.427,25.616 38.442,41.292c4.952,7.937 9.343,16.123 13.225,24.496c3.695,8.435 7.042,16.982 9.804,25.678c2.674,8.721 5.051,17.504 6.705,26.449c0.933,4.454 1.605,8.958 2.19,13.486c0.609,4.666 1.007,8.858 1.219,14.245l-42.872,3.359Z" style="fill:#000072;fill-rule:nonzero;"/><path d="M1288.26,2742.94c-8.049,14.183 -17.268,27.706 -27.519,40.359c-80.232,98.408 -225.692,74.633 -333.617,37.472c-78.017,-26.91 -136.428,-60.874 -136.428,-60.874c-8.173,-1.045 -16.036,-2.948 -23.65,-5.71l-0.124,-0c-119.971,-43.009 -169.237,-285.396 -78.876,-371.587c98.595,-94.041 139.501,3.446 139.501,3.446c151.356,-28.937 138.891,100.063 138.891,100.063c18.3,4.79 34.523,9.828 47.972,14.556c26.051,8.907 41.951,16.285 43.369,16.957l0.124,0.062c0.125,-18.923 1.842,-37.895 4.541,-56.333c9.344,-63.2 30.593,-119.657 40.297,-143.183c3.135,-7.502 5.038,-11.669 5.038,-11.669c210.576,-21.2 280.668,260.016 180.481,436.441Z" style="fill:#fff;fill-rule:nonzero;"/><path d="M1288.26,2742.94c-8.049,14.183 -17.268,27.706 -27.519,40.359c-80.232,98.408 -225.692,74.633 -333.617,37.472c39.861,-76.848 120.155,-129.312 212.728,-129.312c56.022,0 107.614,19.296 148.408,51.481Z" style="fill:#ffa300;fill-rule:nonzero;"/><path d="M938.187,2801.68c-21.56,-7.315 -41.727,-15.253 -59.58,-22.879c24.571,3.645 48.271,5.785 70.876,6.768c-3.981,5.2 -7.75,10.575 -11.296,16.111Zm287.523,-94.352c-16.646,-6.395 -34.188,-10.986 -52.376,-13.536c7.701,-19.881 10.935,-41.814 8.596,-64.395c-7.439,-71.734 -5.026,-130.667 -1.803,-166.821c2.214,-24.981 -5.773,-49.801 -22.22,-68.736c-17.567,-20.204 -30.555,-37.223 -40.122,-51.294c25.081,18.537 57.315,37.472 96.828,56.942c-7.801,65.44 -10.264,166.261 11.097,307.84Z" style="fill:#b2b2d4;fill-rule:nonzero;"/><path d="M1094.94,2831.5c-52.65,-0 -108.261,-13.374 -156.756,-29.821c3.546,-5.536 7.315,-10.911 11.296,-16.111c10.177,0.435 20.13,0.634 29.846,0.647c29.66,-0 57.117,-1.916 81.899,-4.902c52.302,-6.27 94.253,-41.366 112.106,-87.522c18.188,2.55 35.73,7.141 52.376,13.536c3.359,22.244 7.303,45.521 11.906,69.793c-36.925,40.06 -88.194,54.38 -142.673,54.38Z" style="fill:#b27222;fill-rule:nonzero;"/><path d="M1139.86,2586.49c-18.5,-32.036 -44.563,-50.486 -62.304,-60.053c1.194,-2.675 1.841,-5.598 1.866,-8.609c0.075,-13.436 1.02,-26.935 2.588,-40.259c46.168,44.962 57.85,108.921 57.85,108.921Z" style="fill:#b2b2d4;fill-rule:nonzero;"/><path d="M847.007,2700.82c-29.833,-0 -55.511,-9.356 -55.511,-9.356c152.09,-3.62 82.807,-104.976 82.807,-104.976c1.791,0.074 3.558,0.112 5.287,0.112c63.225,-0 80.493,-49.155 85.158,-78.702c18.985,5.088 35.532,10.475 48.819,15.215c-6.047,58.249 -41.105,82.496 -61.919,91.864c-9.306,4.193 -16.098,12.367 -18.599,22.27c-12.951,51.505 -52.165,63.573 -86.042,63.573Z" style="fill:#b2b2d4;fill-rule:nonzero;"/><path d="M766.601,2363.18c-17.744,-0 -39.583,11.943 -63.73,34.971c-42.054,40.11 -52.126,131.203 -23.951,216.597c23.594,71.511 66.377,117.791 114.453,123.8c2.863,0.361 5.623,1.294 8.125,2.737c3.16,1.842 317.668,181.676 442.563,28.403c74.919,-91.951 89.848,-245.298 33.963,-349.118c-33.988,-63.15 -88.816,-95.908 -155.636,-93.519c-12.13,29.597 -42.473,111.521 -42.971,190.77c-0.05,7.34 -3.844,14.145 -10.065,18.064c-6.195,3.919 -13.983,4.379 -20.627,1.232c-0.336,-0.15 -35.32,-16.497 -87.734,-30.219c-10.226,-2.675 -16.982,-12.367 -15.961,-22.879c0.024,-0.311 3.247,-40.832 -22.033,-63.636c-18.612,-16.82 -49.354,-21.249 -91.392,-13.212c-9.99,1.916 -19.943,-3.421 -23.874,-12.802c-0.051,-0.137 -11.546,-25.977 -33.964,-30.493c-2.301,-0.472 -4.69,-0.696 -7.166,-0.696Zm328.355,511.585c-137.398,0.012 -284.912,-79.312 -311.349,-94.179c-63.077,-10.114 -117.25,-66.683 -145.522,-152.364c-27.525,-83.404 -28.277,-200.723 35.106,-261.186c38.878,-37.074 75.769,-52.264 109.607,-45.198c28.354,5.922 46.444,26.151 56.06,40.583c48.819,-6.594 86.863,2.252 113.3,26.35c27.47,25.043 34.263,59.803 35.681,80.903c20.03,5.761 36.999,11.62 50.05,16.534c8.286,-96.604 48.495,-184.611 50.373,-188.692c3.185,-6.917 9.791,-11.62 17.368,-12.379c90.707,-9.181 165.403,31.712 210.265,115.055c64.556,119.955 48.009,290.484 -38.493,396.667c-47.238,57.963 -113.586,77.893 -182.446,77.906Z" style="fill:#000072;fill-rule:nonzero;"/><path d="M1067.71,2498.54c8.422,6.482 15.178,12.727 22.244,19.47c6.918,6.706 13.524,13.661 19.769,20.889c6.183,7.29 11.981,14.879 17.194,22.742c5.1,7.987 9.567,16.298 12.938,24.82c-12.777,-13.238 -27.893,-22.73 -43.556,-30.767c-7.887,-3.956 -15.912,-7.514 -24.036,-10.711c-7.987,-3.111 -16.646,-6.221 -24.135,-8.162l19.582,-38.281Z" style="fill:#000072;fill-rule:nonzero;"/><path d="M845.589,2382.22c0.858,3.608 1.319,5.935 1.742,8.871c0.41,2.799 0.647,5.66 0.821,8.547c0.286,5.822 0.05,11.968 -1.443,18.624c-0.747,3.322 -1.73,6.768 -3.397,10.326c-0.721,1.754 -1.704,3.533 -2.799,5.312l-0.809,1.319l-0.373,0.597c0.236,-0.299 0.448,-0.61 0.647,-0.945c0.809,-1.294 1.505,-2.837 1.891,-4.479c0.809,-3.285 0.535,-6.942 -1.033,-10.277c-1.492,-3.346 -4.603,-6.419 -8.074,-7.887c-5.486,-1.779 -1.592,-0.585 -0.746,-0.597l4.006,0.759c10.637,2.202 21.249,5.673 31.55,11.122c10.214,5.499 20.067,13.312 27.806,23.339c7.738,9.99 13.112,22.021 15.339,33.952c1.157,5.946 1.68,11.881 1.817,17.603c0.037,5.238 -0.087,10.501 -0.485,15.863c-0.859,10.674 -2.762,21.796 -6.992,32.757c-4.131,10.923 -10.588,21.834 -19.819,30.853c-2.276,2.277 -4.789,4.38 -7.415,6.358l-0.447,0.336l0.572,-0.448c0.373,-0.311 0.697,-0.66 1.057,-1.02c0.685,-0.734 1.319,-1.568 1.842,-2.464c1.045,-1.804 1.679,-3.844 1.841,-5.922c0.423,-4.068 -1.418,-8.858 -4.815,-11.719c-0.435,-0.361 -0.833,-0.672 -1.244,-0.958l-0.647,-0.411c-0.162,-0.074 0.212,0.15 0.299,0.212l1.791,1.182c1.207,0.759 2.389,1.605 3.558,2.463c9.331,6.756 18.015,15.726 24.235,27.121c6.159,11.384 8.983,25.318 7.49,37.734c-1.344,12.54 -5.437,23.364 -10.687,33.118c-5.35,9.915 -13.026,19.097 -22.419,25.827c-9.28,6.88 -20.092,11.073 -30.604,12.976c-21.2,3.558 -41.629,-0.746 -58.288,-10.823c19.049,-2.526 36.516,-6.681 50.35,-14.084c13.872,-7.377 22.83,-17.43 28.328,-30.38c2.887,-6.594 4.653,-13.487 4.691,-19.234c0.124,-5.86 -1.568,-10.513 -4.292,-15.091c-2.899,-4.516 -7.453,-8.821 -13.126,-12.516c-0.696,-0.472 -1.393,-0.933 -2.152,-1.368l-1.095,-0.66l-1.779,-1.157c-0.883,-0.597 -1.754,-1.244 -2.588,-2.003c-6.879,-5.859 -10.55,-15.389 -9.691,-24.023c0.361,-4.367 1.729,-8.634 3.969,-12.391c1.119,-1.879 2.426,-3.633 3.919,-5.188c0.733,-0.796 1.505,-1.493 2.314,-2.19l1.443,-1.194c0.982,-0.846 1.978,-1.705 2.886,-2.725c7.489,-7.9 11.694,-21.324 12.827,-36.39c0.261,-3.782 0.323,-7.663 0.273,-11.594c-0.112,-3.422 -0.435,-6.632 -1.032,-9.68c-1.307,-6.021 -3.334,-11.246 -6.693,-15.837c-6.532,-9.094 -18.923,-16.322 -33.392,-20.229l-2.712,-0.684l-1.356,-0.311c0.572,0.087 -3.571,-0.61 -6.071,-1.817c-5.599,-2.326 -10.451,-7.128 -12.927,-12.515c-2.575,-5.412 -3.097,-11.446 -1.766,-16.982c0.647,-2.75 1.754,-5.375 3.172,-7.639l1.207,-1.791l0.099,-0.137c0.162,-0.137 0.374,-0.311 0.548,-0.672c0.423,-0.51 0.832,-1.468 1.207,-2.575c0.759,-2.215 1.356,-5.275 1.628,-8.597c0.101,-1.68 0.187,-3.409 0.138,-5.163l-0.149,-4.74l36.054,-7.664Z" style="fill:#000072;fill-rule:nonzero;"/><path d="M879.814,2611.77l-2.376,-42.934c24.571,-1.356 42.66,-8.933 53.77,-22.493c18.649,-22.767 14.008,-56.719 13.958,-57.055l42.511,-6.482c0.324,2.128 7.726,52.613 -22.879,90.397c-19.072,23.525 -47.661,36.501 -84.984,38.567Z" style="fill:#000072;fill-rule:nonzero;"/><path d="M3153.45,1893.52c-1.903,31.811 -8.783,59.032 -18.425,76.897c-49.328,91.84 -121.075,12.84 -121.075,12.84c-21.561,41.963 -72.419,30.293 -72.419,30.293c2.077,15.104 1.468,27.333 -1.045,37.224c-8.236,32.433 -36.925,39.923 -57.565,40.968c-1.841,0.062 -3.682,0.248 -5.523,0.436c-14.382,1.405 -28.328,5.523 -41.28,11.967c-2.774,1.294 -5.474,2.775 -8.111,4.305c-13.635,8.049 -26.723,16.459 -39.376,25.18c-236.677,163.587 -309.108,444.616 -309.108,444.616c5.474,35.021 14.009,67.455 24.757,98.408c55.836,162.168 169.907,285.022 206.894,541.306c8.049,55.524 14.058,102.464 18.549,141.902c11.856,103.011 -51.729,199.018 -148.781,228.503c-7.614,2.401 -15.477,4.304 -23.526,5.772c-471.401,86.552 -808.451,-101.045 -808.451,-101.045c19.781,127.644 -96.069,204.007 -189.563,226.363c-93.432,22.419 -369.858,176.413 -442.277,11.857c-17.205,-39.127 -18.002,-72.432 -9.156,-100.374c12.167,-38.94 42.871,-67.691 73.775,-87.784c40.42,-26.163 81.028,-37.596 81.028,-37.596c-167.829,-237.349 -76.301,-431.776 -12.665,-521.264c24.397,-34.35 44.725,-53.26 44.725,-53.26c0,0 0,-0.062 -0.062,-0.249c-61.67,-232.807 -68.799,-393.072 -62.043,-491.915c5.897,-86.739 22.543,-126.289 22.543,-126.289l720.792,-262.181l475.817,-277.222c0.622,-0.373 1.232,-0.734 1.792,-1.045l238.705,-139.077c78.875,-45.945 173.228,-59.829 260.998,-34.76c163.102,46.554 206.346,194.29 200.076,295.224Z" style="fill:#fff;fill-rule:nonzero;"/><path d="M2580.94,3588.37c-191.094,-72.668 -326.911,-257.628 -326.911,-474.287c-0,-186.366 100.485,-349.268 250.249,-437.424c55.836,162.168 169.907,285.022 206.894,541.306c8.049,55.524 14.058,102.464 18.549,141.902c11.856,103.011 -51.729,199.018 -148.781,228.503Z" style="fill:#ffa300;fill-rule:nonzero;"/><path d="M2697.6,2103.39c-109.779,-61.099 -55.661,-170.99 -55.661,-170.99c16.285,-64.133 -17.318,-115.477 -17.318,-115.477c13.884,-4.33 26.325,-6.221 37.46,-6.221c47.562,0 71.249,34.524 82.521,61.62c9.629,23.165 31.873,37.186 54.889,37.186c9.854,0 19.843,-2.562 29.062,-8.086c13.312,-7.962 21.498,-16.87 21.498,-16.87c8.547,-34.213 -4.603,-59.219 -4.603,-59.219c71.424,22.182 -0.647,114.992 92.822,142.15c3.919,1.132 7.726,1.667 11.396,1.667c46.604,0 73.738,-84.598 73.738,-84.598c2.587,19.719 -0,41.403 -0,41.403c25.815,17.741 46.914,24.36 64.021,24.36c15.601,-0 27.88,-5.499 37.397,-13.063c-2.5,9.206 -5.486,16.994 -8.708,22.991c-10.836,20.154 -22.979,31.214 -36.079,32.869c-1.269,0.161 -2.551,0.236 -3.832,0.236c-19.308,0 -39.774,-17.417 -46.342,-24.534c-4.106,-4.528 -9.891,-7.041 -15.925,-7.041c-0.933,-0 -1.866,0.05 -2.811,0.174c-6.992,0.933 -13.088,5.225 -16.298,11.496c-8.759,17.044 -25.529,20.253 -36.937,20.253c-5.897,0 -10.351,-0.858 -11.521,-1.107c-1.592,-0.373 -3.21,-0.547 -4.815,-0.547c-5.324,-0 -10.525,1.965 -14.518,5.636c-5.225,4.777 -7.751,11.818 -6.78,18.823c2.065,14.867 1.157,26.623 -2.712,35.071c-39.575,-0.684 -64.295,-12.777 -79.237,-25.019c-10.799,-8.833 -24.309,-13.66 -38.019,-13.66c-4.666,-0 -9.356,0.56 -13.959,1.704c-10.724,2.688 -21.76,3.72 -32.421,3.72c-36.726,0 -69.035,-12.329 -69.035,-12.329c8.348,41.528 46.429,65.464 82.57,79.026c-24.72,3.196 -48.009,9.604 -69.843,18.376Z" style="fill:#b2b2d4;fill-rule:nonzero;"/><path d="M2309.6,3595.24c-327.496,0 -547.489,-119.47 -550.177,-120.951c-3.259,-1.804 -6.854,-2.712 -10.45,-2.712c-4.304,0 -8.609,1.294 -12.279,3.857c-2.949,2.053 -5.275,4.752 -6.855,7.825c-33.093,-17.231 -100.958,-53.508 -136.602,-79.162c0,0 313.624,129.088 574.822,129.088c90.608,-0 174.858,-15.514 237.585,-57.341c41.006,40.309 88.817,73.701 141.566,98.284c-83.864,14.991 -163.486,21.112 -237.61,21.112Zm86.353,-833.084c-27.432,-142.872 -31.189,-301.196 37.286,-474.685c1.194,-3.011 3.869,-4.466 6.544,-4.466c3.06,-0 6.096,1.891 6.88,5.523c2.065,9.543 4.702,21.262 7.613,33.305c1.182,4.889 5.387,7.539 9.617,7.539c3.322,0 6.656,-1.642 8.547,-5.113c27.644,-50.797 104.081,-172.208 225.157,-220.863c16.783,9.354 37.397,17.553 62.627,24.047c-227.383,166.771 -298.396,433.306 -301.519,445.424c-0.734,2.849 -0.883,5.81 -0.423,8.708c5.972,38.182 15.452,73.278 27.234,106.694c-32.633,21.175 -62.678,45.994 -89.563,73.887Zm410.365,-665.716c-11.495,-2.563 -25.031,-6.233 -38.878,-11.42c11.62,-1.506 23.551,-2.302 35.793,-2.302c8.323,-0 16.783,0.36 25.392,1.132c-3.919,1.853 -7.776,3.894 -11.533,6.108c-3.633,2.14 -7.216,4.292 -10.774,6.482Z" style="fill:#b2b2d4;fill-rule:nonzero;"/><path d="M2547.21,3574.12c-52.749,-24.583 -100.56,-57.975 -141.566,-98.284c7.863,-5.25 15.39,-10.91 22.544,-16.994c189.637,-161.434 25.777,-394.528 -32.235,-696.694c26.885,-27.893 56.93,-52.712 89.563,-73.887c19.893,56.383 46.38,107.938 73.824,161.359c52.626,102.414 107.042,208.324 130.568,371.413c7.39,51.207 13.611,98.744 18.475,141.267c11.458,100.075 -56.544,192.611 -154.828,210.675c-2.115,0.386 -4.217,0.772 -6.345,1.145Z" style="fill:#b27222;fill-rule:nonzero;"/><path d="M2760.23,2127.44c-25.23,-6.494 -45.844,-14.693 -62.627,-24.047c21.834,-8.772 45.123,-15.18 69.843,-18.376c13.847,5.187 27.383,8.857 38.878,11.42c-16.036,9.853 -31.388,20.217 -46.094,31.003Z" style="fill:#7c7cb6;fill-rule:nonzero;"/><path d="M1610.52,2873.37c-14.22,-38.94 -27.433,-102.464 6.842,-158.162c13.188,-21.423 28.067,-51.393 39.625,-85.357c23.998,18.935 52.899,34.598 86.589,46.89c27.606,10.089 55.549,15.091 83.603,15.091c74.758,-0 150.324,-35.519 222.308,-105.263c17.764,-17.206 33.752,-34.959 47.81,-52.028c-91.914,171.112 -195.833,214.768 -277.943,214.768c-56.681,-0 -102.949,-20.801 -127.719,-34.822c-3.011,-1.705 -6.258,-2.501 -9.455,-2.501c-7.664,0 -15.041,4.616 -18.139,12.329c-6.445,16.099 -16.796,38.156 -30.929,56.644c-14.182,18.574 -20.117,59.542 -22.592,92.411Zm-179.635,-30.244c-143.358,-106.096 -133.144,-265.465 -120.74,-333.53c3.359,-18.474 -6.37,-36.775 -23.638,-44.178c-10.587,-4.528 -21.61,-9.791 -32.657,-15.401c0.647,-11.459 1.468,-22.096 2.438,-31.961c41.901,16.434 79.647,24.272 113.312,26.2c-32.682,53.77 -53.259,129.76 -26.437,231.639c19.582,74.434 52.103,128.303 87.722,167.231Zm654.817,-436.454c-47.039,0 -116.285,-7.601 -183.181,-43.07l-1.156,-0.61c-46.915,-24.882 -87.958,-46.654 -125.891,-59.63c94.179,-79.51 266.797,-221.783 444.442,-350.81c-105.078,92.996 -210.875,196.866 -279.997,266.436c-32.782,33.006 -27.432,88.331 11.869,113.2c4.118,2.613 8.273,5.424 12.416,8.46c31.55,23.091 93.741,49.117 136.961,65.738c-4.826,0.174 -10.001,0.286 -15.463,0.286Z" style="fill:#b2b2d4;fill-rule:nonzero;"/><path d="M1330.6,3576.89c-38.443,-0 -80.966,-6.096 -124.771,-23.215c32.409,-18.599 62.18,-27.246 62.728,-27.395c4.815,-1.356 8.957,-4.329 11.769,-8.335c21.486,12.553 63.412,30.144 129.498,30.144c25.193,-0 53.882,-2.55 86.303,-8.92c0,-0 -70.018,37.708 -165.527,37.721Z" style="fill:#b2b2d4;fill-rule:nonzero;"/><path d="M1352.21,3106.66c-2.488,-1.655 -56.631,-38.642 -91.143,-100.299c16.248,-24.123 31.314,-41.591 40.197,-51.158c10.463,38.219 31.886,112.28 50.946,151.457Z" style="fill:#b2b2d4;fill-rule:nonzero;"/><path d="M1245.88,3784.71c-49.975,0 -89.152,-16.82 -109.045,-62.043c-12.777,-29.037 -16.124,-55.25 -10.04,-79.547c4.516,6.593 7.253,16.011 7.465,28.975c0.622,41.913 27.892,60.052 55.81,67.616c5.548,1.493 11.134,2.215 16.633,2.215c23.215,-0 45.074,-12.802 57.254,-33.753c25.056,-43.083 67.43,-51.555 67.43,-51.555c-0,0 -26.325,46.293 20.751,46.293c5.275,-0 11.483,-0.585 18.749,-1.879c72.045,-12.839 88.816,-25.678 200.374,-74.024c111.546,-48.407 74.384,-121.448 74.384,-121.448c-40.171,-52.028 -52.401,-101.469 -52.401,-101.469c37.398,27.918 103.82,62.815 136.49,79.399c-1.941,3.906 -2.7,8.385 -2.003,12.864c18.96,122.58 -105.076,185.88 -173.303,202.215c-20.552,4.914 -48.171,15.34 -80.157,27.407c-82.011,30.941 -164.133,58.734 -228.391,58.734Z" style="fill:#b2b2d4;fill-rule:nonzero;"/><path d="M1272.26,2329.26c-12.192,40.072 -55.163,224.522 43.369,596.246c2.028,7.663 -0.323,15.837 -6.133,21.237c-0.609,0.572 -63.561,60.313 -98.134,157.328c-45.858,128.64 -22.655,259.543 68.935,389.091c4.031,5.711 5.039,13.013 2.7,19.607c-2.339,6.581 -7.726,11.62 -14.444,13.511c-1.008,0.286 -102.912,29.858 -135.059,98.147c-13.884,29.472 -12.79,61.607 3.334,98.246c45.484,103.372 191.641,58.323 337.436,3.309c31.986,-12.067 59.605,-22.493 80.157,-27.407c68.227,-16.335 192.263,-79.635 173.303,-202.215c-1.257,-8.112 2.227,-16.236 8.97,-20.926c6.743,-4.69 15.576,-5.126 22.729,-1.145c3.31,1.829 336.44,182.733 794.132,98.694c98.284,-18.064 166.286,-110.6 154.828,-210.675c-4.864,-42.523 -11.085,-90.06 -18.475,-141.267c-23.526,-163.089 -77.942,-268.999 -130.568,-371.413c-43.705,-85.071 -84.984,-165.415 -101.058,-268.053c-0.46,-2.898 -0.311,-5.859 0.423,-8.708c3.372,-13.076 85.768,-322.346 358.387,-482.909c19.98,-11.755 42.374,-18.562 64.768,-19.694c10.239,-0.509 24.073,-3.085 31.824,-12.441c6.992,-8.46 9.206,-22.356 6.569,-41.316c-0.971,-7.005 1.555,-14.046 6.78,-18.823c5.2,-4.778 12.428,-6.669 19.333,-5.089c3.422,0.747 35.183,6.706 48.458,-19.146c3.21,-6.271 9.306,-10.563 16.298,-11.496c7.004,-0.92 13.996,1.642 18.736,6.867c7.004,7.59 29.808,26.898 50.174,24.298c13.1,-1.655 25.243,-12.715 36.079,-32.869c17.666,-32.857 27.88,-119.235 -6.333,-200.225c-20.751,-49.129 -65.75,-113.487 -162.317,-141.068c-80.257,-22.904 -169.284,-11.01 -244.241,32.67l-716.363,417.344c-1.107,0.647 -2.264,1.195 -3.471,1.63l-711.126,258.66Zm-26.524,1498.28c-63.698,-0 -119.383,-21.884 -148.271,-87.559c-21.15,-48.072 -22.095,-93.171 -2.8,-134.04c28.951,-61.271 96.443,-95.969 134.686,-111.359c-108,-167.393 -91.826,-312.691 -57.85,-406.744c30.43,-84.251 79.137,-141.716 99.441,-163.226c-111.907,-430.495 -38.717,-612.755 -35.507,-620.356c2.314,-5.524 6.83,-9.829 12.466,-11.881l718.976,-261.522l714.683,-416.374c85.034,-49.54 186.254,-62.989 277.72,-36.863c112.914,32.247 165.701,107.901 190.11,165.677c37.771,89.438 30.555,189.028 4.591,237.324c-17.853,33.217 -41.005,51.791 -68.823,55.2c-27.706,3.397 -52.128,-9.48 -68.102,-21.249c-15.726,14.792 -35.594,20.565 -52.874,21.784c-0.921,19.657 -6.731,36.029 -17.38,48.893c-14.021,16.945 -35.743,26.624 -62.79,27.98c-15.489,0.771 -31.09,5.536 -45.111,13.784c-240.459,141.628 -326.7,415.491 -337.399,452.478c15.526,93.693 54.678,169.894 96.082,250.487c51.717,100.647 110.326,214.731 134.885,384.923c7.452,51.63 13.722,99.59 18.636,142.524c14.034,122.469 -69.333,235.731 -189.787,257.851c-90.694,16.659 -176.388,23.427 -255.661,23.427c-264.346,0.012 -457.89,-75.219 -533.133,-109.929c-4.429,111.907 -105.972,187.162 -208.1,211.621c-17.915,4.292 -44.365,14.27 -74.982,25.827c-68.375,25.791 -162.541,61.322 -243.706,61.322Z" style="fill:#000072;fill-rule:nonzero;"/><path d="M1315.89,2926.62c2.339,14.27 5.088,29.523 7.775,44.402c2.837,14.954 5.773,29.946 8.896,44.925c3.073,15.016 6.506,29.97 9.828,45.061c3.272,15.116 6.805,30.219 9.89,45.72c-18.437,-25.616 -33.13,-53.558 -45.894,-82.259c-6.47,-14.345 -12.441,-28.901 -17.841,-43.693c-5.548,-14.867 -10.5,-29.51 -14.742,-45.372l42.088,-8.784Z" style="fill:#000072;fill-rule:nonzero;"/><path d="M1739.6,3512.42c-13.449,-7.465 -26.338,-15.24 -39.152,-23.476c-12.852,-8.087 -25.504,-16.534 -37.945,-25.305c-12.416,-8.808 -24.77,-17.741 -36.539,-27.569c-11.769,-9.767 -23.227,-20.205 -32.969,-32.173c13.959,6.42 27.856,12.093 41.615,18.04c13.772,5.859 27.457,11.831 41.28,17.517l82.471,34.274l-18.761,38.692Z" style="fill:#000072;fill-rule:nonzero;"/><path d="M1278.37,3490.81c-0,0.087 0.908,0.995 1.48,1.617c0.585,0.66 1.468,1.406 2.19,2.115c1.455,1.468 3.147,2.886 4.814,4.317c3.322,2.849 6.967,5.586 10.7,8.174c3.744,2.612 7.527,5.225 11.595,7.477c3.931,2.488 8.111,4.578 12.341,6.631c16.833,8.41 35.245,14.344 54.392,18.325l14.519,2.501c4.864,0.958 9.828,1.008 14.767,1.555c9.916,1.232 19.918,0.871 30.033,1.132c10.114,0.137 20.179,-1.132 30.443,-1.567c10.126,-1.132 20.303,-2.613 30.592,-3.944c-9.617,3.645 -19.284,7.477 -29.124,11.023l-15.066,4.254c-5.064,1.357 -10.09,3.036 -15.278,3.857c-10.338,2.003 -20.739,4.255 -31.388,4.939c-5.313,0.398 -10.638,1.307 -16.012,1.282l-16.173,0.236c-21.61,-0.697 -43.556,-3.894 -64.867,-10.724c-5.313,-1.742 -10.625,-3.546 -15.788,-5.86c-5.263,-2.053 -10.363,-4.566 -15.452,-7.178c-5.063,-2.675 -10.027,-5.599 -14.916,-8.883c-2.451,-1.642 -4.89,-3.26 -7.316,-5.175c-1.219,-0.958 -2.376,-1.78 -3.645,-2.899c-1.294,-1.132 -2.314,-1.916 -4.105,-3.67l31.264,-29.535Z" style="fill:#000072;fill-rule:nonzero;"/><path d="M1270.91,3808.06c-1.231,-4.28 -2.028,-7.589 -2.737,-11.346c-0.721,-3.658 -1.368,-7.303 -1.816,-10.973c-1.02,-7.328 -1.518,-14.718 -1.705,-22.158c-0.348,-14.854 1.033,-30.007 4.616,-45.023c1.704,-7.54 4.454,-14.954 7.614,-22.208c3.185,-7.24 7.191,-14.369 12.603,-20.515c5.324,-6.133 11.781,-11.433 19.059,-14.854c7.365,-3.297 15.141,-5.026 22.842,-4.367c-9.903,11.918 -15.626,22.319 -19.334,33.28c-1.866,5.436 -3.545,10.861 -4.578,16.633c-1.095,5.723 -1.468,11.657 -1.853,17.629c-0.448,12.03 0.273,24.384 1.667,36.8c0.659,6.208 1.555,12.429 2.45,18.637l2.874,18.002l-41.702,10.463Z" style="fill:#000072;fill-rule:nonzero;"/><path d="M1097.73,3736.01c0.025,-7.067 0.522,-12.752 1.369,-19.01c0.796,-6.108 1.965,-12.167 3.371,-18.201c2.837,-12.031 6.942,-23.949 12.565,-35.407c5.81,-11.321 12.927,-22.605 23.24,-31.339c10.102,-8.721 24.384,-13.66 36.788,-10.637c-9.704,8.336 -15.477,16.285 -19.769,25.131c-2.14,4.379 -4.167,8.746 -5.747,13.436c-1.593,4.69 -2.663,9.605 -3.795,14.519c-2.003,9.928 -3.197,20.204 -3.894,30.58c-0.386,5.187 -0.585,10.413 -0.796,15.601l-0.336,15.003l-42.996,0.324Z" style="fill:#000072;fill-rule:nonzero;"/><path d="M2993.3,1977.29c1.181,-2.824 2.799,-6.78 4.105,-10.314c1.418,-3.657 2.899,-7.365 4.23,-11.109c2.687,-7.515 5.661,-15.129 8.012,-22.917c2.563,-7.763 5.026,-15.663 7.39,-23.712c2.488,-8.049 4.503,-16.248 6.954,-24.696c3.148,8.149 5.624,16.547 7.502,25.094c1.978,8.547 3.285,17.231 4.168,25.977c0.722,8.733 1.381,17.579 1.207,26.412c-0.087,4.429 -0.224,8.883 -0.51,13.336c-0.473,4.566 -0.722,8.709 -1.755,13.885l-41.303,-11.956Z" style="fill:#000072;fill-rule:nonzero;"/><path d="M2944.62,2034.82c-4.665,0.572 -7.589,0.684 -11.222,0.784c-3.433,0.062 -6.855,0.025 -10.238,-0.199c-6.806,-0.312 -13.561,-1.269 -20.304,-2.576c-13.461,-2.737 -26.873,-7.788 -39.04,-15.427c-6.233,-3.558 -11.719,-8.41 -17.143,-13.125c-5.002,-5.2 -10.053,-10.4 -13.885,-16.409c-4.441,-5.711 -7.327,-12.031 -10.562,-18.239c-2.998,-6.258 -4.889,-12.752 -7.266,-19.147c-1.804,-4.839 -1.381,-9.965 0.772,-14.244l1.58,-3.111c0.535,-0.846 1.853,-3.06 2.836,-4.79c1.058,-1.853 2.14,-3.769 3.173,-5.735c2.127,-3.894 4.043,-7.962 6.009,-12.08c3.769,-8.273 7.041,-16.932 9.567,-25.964c2.612,-9.02 4.553,-18.45 5.524,-28.266c1.231,-9.878 1.181,-20.055 1.044,-30.978c6.507,8.497 12.491,18.101 15.962,28.714c2.128,5.25 3.223,10.711 4.628,16.273c0.809,5.548 1.991,11.259 2.09,16.956c0.697,11.421 0.063,23.078 -2.239,34.437c-1.107,5.698 -2.613,11.321 -4.466,16.907c-0.996,2.762 -1.941,5.562 -3.173,8.311c-1.231,2.899 -2.338,5.238 -4.391,8.833l-0,0.012l2.351,-17.355c1.767,4.33 2.998,9.032 5.014,13.126c2.177,3.968 3.931,8.273 6.73,11.619c4.84,7.39 11.247,13.2 18.599,17.779c7.328,4.615 15.788,7.925 24.907,9.778c4.578,0.871 9.244,1.555 13.959,1.767c2.364,0.161 4.703,0.186 7.029,0.149c2.14,-0.037 4.977,-0.236 6.022,-0.348l6.133,42.548Z" style="fill:#000072;fill-rule:nonzero;"/><path d="M2849.95,1960.43l-2.725,2.551c-0.796,0.734 -1.555,1.381 -2.326,2.028c-1.555,1.293 -3.073,2.5 -4.628,3.67c-3.098,2.351 -6.246,4.553 -9.53,6.506c-6.532,3.944 -13.312,7.527 -20.478,10.301c-7.129,2.874 -14.593,4.977 -22.17,6.681c-7.75,1.555 -14.891,2.439 -24.123,2.488c-8.783,-0.298 -17.666,-1.418 -26.039,-4.279c-8.31,-2.887 -16.397,-6.631 -23.451,-11.769c-14.282,-10.04 -25.38,-24.061 -31.899,-39.886c-3.259,-7.888 -5.486,-16.211 -6.382,-24.621c-0.597,-4.777 -0.684,-6.93 -0.896,-10.015c-0.186,-2.923 -0.547,-5.785 -0.796,-8.684c-1.393,-11.433 -3.533,-22.58 -7.116,-32.47c-1.742,-5.027 -3.894,-9.431 -5.984,-13.935c-2.364,-4.092 -4.641,-8.409 -7.751,-12.03c-5.922,-7.601 -15.327,-14.407 -29.012,-20.042c11.794,-8.634 29.162,-10.438 44.638,-3.646c7.875,3.111 14.419,8.411 20.229,14.158c5.387,5.922 10.052,12.466 13.424,19.247c7.029,13.51 11.52,27.395 14.606,41.229c0.684,3.446 1.468,6.917 2.065,10.363c0.572,3.285 1.144,7.527 1.605,9.082c0.796,4.33 2.438,8.398 4.342,12.23c3.832,7.688 9.729,14.182 16.621,18.686c6.904,4.528 14.717,6.942 22.754,7.34c3.621,0.112 9.293,-0.448 14.158,-1.219c5.014,-0.834 10.04,-1.866 14.942,-3.521c4.889,-1.642 9.84,-3.371 14.531,-5.648c2.351,-1.12 4.677,-2.302 6.929,-3.508l3.247,-1.866l1.493,-0.896c0.423,-0.224 1.095,-0.709 0.995,-0.523l28.727,31.998Z" style="fill:#000072;fill-rule:nonzero;"/><path d="M2839.93,2123.3c-5.175,-0.261 -127.271,-7.079 -167.281,-78.639c-19.943,-35.656 -16.173,-79.063 11.222,-129.013l37.696,20.677c-19.769,36.066 -23.613,65.439 -11.421,87.298c23.526,42.175 103.211,55.25 131.924,56.72l-2.14,42.957Z" style="fill:#000072;fill-rule:nonzero;"/><path d="M2460.1,2587.46c-1.605,-3.795 -1.456,-3.956 -1.991,-5.561l-0.958,-3.521c-0.56,-2.202 -1.02,-4.379 -1.406,-6.457c-0.821,-4.18 -1.468,-8.223 -2.127,-12.279c-1.269,-8.012 -2.115,-15.999 -2.911,-23.924c-1.506,-15.862 -2.327,-31.637 -2.911,-47.4c-0.921,-31.55 -1.232,-63.001 4.08,-94.925c6.071,15.042 10.538,30.207 14.706,45.373c4.117,15.178 7.526,30.393 11.258,45.521l10.75,45.136l5.399,22.107c0.945,3.571 1.866,7.166 2.874,10.563l1.468,4.889l0.671,2.09c0.05,0.249 0.797,1.953 -0.049,-0.05l-38.853,18.438Z" style="fill:#000072;fill-rule:nonzero;"/><path d="M1607.25,2918.45c0.983,1.779 1.542,2.7 1.542,2.7c0,-0 -185.582,-25.679 -244.85,-250.686c-25.193,-95.771 -6.084,-166.535 24.197,-216.224c40.906,-67.144 102.215,-95.833 102.215,-95.833c231.029,25.678 169.907,246.083 108.734,345.536c-55.785,90.607 -1.915,196.38 8.162,214.507Z" style="fill:#00a4ff;fill-rule:nonzero;"/><path d="M1569.8,2887.46c-1.032,-0.398 -2.065,-0.821 -3.122,-1.256c-72.419,-78.08 -34.561,-195.522 -7.092,-256.16c10.961,-24.172 9.679,-51.978 -2.786,-75.404c-0.199,-0.374 -0.386,-0.747 -0.585,-1.12c-11.819,-22.493 -33.927,-37.858 -58.896,-41.366c0.684,-3.633 1.493,-7.241 2.364,-10.849c3.571,-16.832 7.987,-33.453 13.175,-49.764c20.229,-1.978 40.57,-10.587 59.978,-27.755c-3.148,35.581 -0.659,79.958 18.923,123.526c7.999,17.803 18.275,34.213 30.766,49.191c-9.629,34.748 -24.72,68.451 -41.777,96.182c-43.406,70.54 -28.116,147.574 -10.948,194.775Zm-105.748,-380.084c-14.518,-3.508 -26.76,-8.758 -37.061,-14.941c4.864,-11.533 10.438,-22.207 16.434,-32.06c4.18,-6.868 8.584,-13.337 13.113,-19.408c5.138,2.376 10.351,4.404 15.626,6.058c-3.459,16.211 -5.897,32.621 -7.229,49.105c-0.373,3.745 -0.684,7.489 -0.883,11.246Z" style="fill:#0072d4;fill-rule:nonzero;"/><path d="M1558.11,2882.52c-55.238,-24.869 -138.082,-83.528 -173.352,-217.567c-22.183,-84.263 -7.726,-147.301 17.417,-192.512c6.656,7.067 14.829,13.971 24.82,19.993c-19.682,46.666 -27.968,107.378 -7.776,184.163c28.589,108.523 86.539,170.653 138.891,205.923Z" style="fill:#b2e4ff;fill-rule:nonzero;"/><path d="M1426.99,2492.43c-9.991,-6.022 -18.164,-12.926 -24.82,-19.993c6.133,-11.047 12.914,-21.038 19.955,-29.995c9.505,-1.256 18.562,-2.973 27.208,-5.076c0.075,0.05 0.162,0.087 0.237,0.137c0.025,0.012 0.05,0.025 0.074,0.037c0.038,0.013 0.088,0.038 0.125,0.063c0.062,0.024 0.124,0.062 0.174,0.087c0.012,0.012 0.025,0.012 0.025,0.024c2.177,1.145 4.367,2.227 6.569,3.248c-4.529,6.071 -8.933,12.54 -13.113,19.408c-5.996,9.853 -11.57,20.527 -16.434,32.06Z" style="fill:#b2d4f2;fill-rule:nonzero;"/><path d="M1494.31,2380.55c-28.615,15.626 -158.585,98.16 -109.555,284.401c37.857,143.892 130.53,200.896 185.046,222.506c-17.168,-47.201 -32.458,-124.235 10.948,-194.775c41.665,-67.704 71.586,-171.113 38.841,-238.158c-19.93,-40.831 -62.068,-65.7 -125.28,-73.974Zm114.481,562.083c-0.97,-0 -1.953,-0.062 -2.948,-0.199c-8.161,-1.132 -200.511,-30.344 -262.679,-266.535c-63.075,-239.601 136.03,-336.006 138.045,-336.951c3.596,-1.68 7.589,-2.314 11.496,-1.904c82.346,9.157 138.045,42.324 165.527,98.607c45.807,93.818 -4.131,219.869 -40.869,279.561c-53.708,87.286 9.207,193.768 9.841,194.826c4.28,7.103 4.093,16.024 -0.46,22.941c-4.019,6.071 -10.787,9.654 -17.953,9.654Z" style="fill:#000072;fill-rule:nonzero;"/><path d="M1543.28,2374.64c-2.015,4.068 -4.503,9.418 -6.706,14.381c-2.276,5.027 -4.391,10.202 -6.606,15.328l-6.17,15.663c-1.891,5.312 -3.932,10.55 -5.711,15.912c-7.489,21.286 -13.685,43.133 -18.4,65.377c-1.344,5.549 -2.525,11.135 -3.384,16.758l-2.899,16.895c-1.418,11.321 -3.321,22.705 -4.242,34.213c-2.886,23.065 -3.135,46.305 -4.765,70.602c-9.194,-22.282 -15.738,-46.044 -18.45,-70.279c-1.966,-12.13 -2.053,-24.322 -2.6,-36.601c-0.162,-6.133 0.311,-12.242 0.448,-18.376c0.099,-6.158 0.535,-12.279 1.144,-18.387c1.979,-24.509 6.408,-48.868 12.989,-72.668c3.396,-11.869 7.141,-23.688 11.682,-35.258c2.339,-5.76 4.591,-11.557 7.303,-17.23c2.612,-5.848 5.349,-11.085 8.907,-17.43l37.46,21.1Z" style="fill:#000072;fill-rule:nonzero;"/><path d="M2147.82,2423.52c-0,0 -169.794,315.976 -396.892,233.057c-227.035,-82.932 -142.138,-298.173 -142.138,-298.173c45.273,-43.556 87.411,-52.588 135.881,-41.528c42.311,9.704 89.438,34.773 147.786,65.726c96.442,51.107 196.02,47.736 236.503,43.556c12.042,-1.294 18.86,-2.638 18.86,-2.638Z" style="fill:#00a4ff;fill-rule:nonzero;"/><path d="M1826.83,2648.73c-22.133,-0 -45.037,-3.795 -68.513,-12.367c-62.876,-22.966 -105.673,-58.733 -127.196,-106.345c-14.071,-31.115 -17.281,-63.449 -16.061,-91.093c3.595,3.148 7.24,6.258 10.935,9.368c14.693,12.192 30.07,23.613 46.193,34.188c8.037,5.088 16.174,10.065 24.522,14.792c12.528,47.338 53.135,85.93 108.945,87.809c2.625,0.087 5.312,0.137 8.037,0.137c18.811,-0 39.985,-2.14 63.835,-6.967c95.646,-19.309 172.73,-74.037 228.814,-128.851c0.11,-0 0.224,-0 0.336,-0.013c-43.83,65.987 -148.67,199.342 -279.847,199.342Zm-131.352,-208.511c-16.658,-11.47 -33.118,-23.862 -49.241,-36.489c1.244,-0.821 2.488,-1.667 3.719,-2.563c10.476,-7.602 20.478,-17.915 28.752,-31.911c1.704,0.821 3.52,1.418 5.411,1.766c1.307,0.237 2.601,0.361 3.907,0.361c5.163,0 10.201,-1.866 14.158,-5.324c0.659,-0.585 12.627,-11.036 33.603,-28.988c1.43,0.299 2.874,0.622 4.329,0.958c-5.113,19.333 -13.411,40.483 -26.81,60.6c-8.833,13.262 -14.68,27.345 -17.828,41.59Z" style="fill:#0072d4;fill-rule:nonzero;"/><path d="M1627.33,2370.49c-6.009,18.176 -26.847,91.752 3.795,159.53c21.523,47.612 64.32,83.379 127.196,106.345c162.541,59.319 297.127,-109.853 348.36,-186.975c-51.196,2.439 -138.481,-2.289 -224.298,-47.786l-1.157,-0.622c-128.727,-68.251 -184.985,-94.041 -253.896,-30.492Zm199.852,321.35c-28.054,-0 -55.997,-5.002 -83.603,-15.091c-74.335,-27.134 -125.418,-70.69 -151.817,-129.436c-42.437,-94.414 -4.604,-192.648 -2.974,-196.791c1.132,-2.874 2.874,-5.462 5.101,-7.614c95.87,-92.126 180.033,-47.487 307.479,20.092l1.156,0.61c116.436,61.732 239.974,39.039 241.206,38.803c8.136,-1.568 16.484,1.692 21.398,8.373c4.915,6.693 5.549,15.601 1.63,22.904c-1.804,3.346 -44.874,82.744 -117.268,152.887c-71.984,69.744 -147.55,105.263 -222.308,105.263Z" style="fill:#000072;fill-rule:nonzero;"/><path d="M1614.07,2377.99c27.171,22.046 55.699,44.763 84.786,64.532c14.481,10.127 29.497,19.171 44.538,27.693l11.421,6.034l11.57,5.325c7.863,3.483 16.099,7.004 24.31,10.015c16.459,6.133 33.292,11.159 50.398,15.053c17.131,3.783 34.586,6.059 52.215,6.806c8.808,0.174 17.666,0.161 26.536,-0.448c8.858,-0.635 17.691,-1.891 26.524,-3.509c17.567,-3.496 35.196,-8.795 51.394,-17.989c-12.988,13.585 -29.771,23.451 -47.288,31.127c-17.654,7.564 -36.539,12.677 -55.785,15.29c-19.247,2.625 -38.878,3.235 -58.286,1.605c-19.458,-1.393 -38.704,-4.802 -57.527,-9.53c-9.468,-2.364 -18.686,-4.926 -28.055,-8.099l-14.045,-5.213l-13.586,-5.897c-17.952,-8.086 -34.71,-18.002 -50.996,-28.303c-16.123,-10.575 -31.5,-21.996 -46.193,-34.188c-14.73,-12.341 -28.552,-24.844 -41.938,-39.512l30.007,-30.792Z" style="fill:#000072;fill-rule:nonzero;"/><path d="M1563.39,2342.62c0,-0 -105.35,151.357 -334.351,39.985c-168.985,-82.185 -164.631,-135.445 -150.622,-157.739c4.914,-7.925 11.06,-11.918 11.06,-11.918c-38.144,-53.932 -8.659,-108.423 -8.659,-108.423c50.921,56.146 156.569,94.538 216.348,112.777c26.288,7.987 43.668,12.105 43.668,12.105l222.556,113.213Z" style="fill:#00a4ff;fill-rule:nonzero;"/><path d="M1387.74,2402.09c-41.13,0 -90.732,-10.338 -149.304,-38.815c-126.873,-61.707 -143.369,-101.158 -144.576,-115.241c-0.137,-1.58 -0.087,-3.048 0.099,-4.404c24.086,24.832 66.41,53.011 140.21,69.657c4.031,0.908 8.037,1.344 11.956,1.344c6.394,-0 12.578,-1.157 18.313,-3.285c11.383,5.885 23.215,10.923 34.859,16.472c8.324,3.384 16.821,6.382 25.268,9.592c4.242,1.505 8.41,3.334 12.752,4.566l12.988,3.844c4.915,1.468 9.841,2.874 14.793,4.205c5.897,10.575 12.615,20.851 19.98,30.53c-0,0 -0.012,-0.012 -0.025,-0.012c5.636,7.402 11.67,14.456 18.015,21.062c-4.964,0.311 -10.078,0.485 -15.328,0.485Zm-35.071,-77.668l-10.052,-1.891c-4.28,-0.759 -8.398,-2.103 -12.615,-3.136c-8.36,-2.251 -16.845,-4.292 -25.193,-6.73c-8.696,-3.135 -17.542,-5.984 -26.3,-9.119c14.133,-10.899 22.767,-28.726 20.44,-48.57c-0.56,-4.852 -1.02,-9.878 -1.344,-15.053c17.48,5.175 30.307,8.447 35.706,9.766l4.404,2.252c-0.05,1.455 -0.074,2.923 -0.074,4.441l-0,0.535c0.012,0.037 0.012,0.062 0.012,0.099l0,1.157c0,0.063 0.012,0.137 0.012,0.2l0,0.572c0.013,0.025 0.013,0.05 0.013,0.062l-0,0.274c-0,0.099 -0,0.186 0.012,0.286l0,0.348c0,0.062 0.013,0.137 0.013,0.212l-0,0.286c0.012,0.012 0.012,0.037 0.012,0.05c0,0.286 0.013,0.584 0.025,0.858l0,0.025c0,0.087 0.013,0.174 0.013,0.261l-0,0.025c0.808,20.018 6.121,41.59 14.916,62.79Z" style="fill:#0072d4;fill-rule:nonzero;"/><path d="M1091.82,2143.87c-1.517,15.825 0.822,36.278 15.241,56.669c3.371,4.777 4.665,10.712 3.558,16.459c-1.095,5.748 -4.491,10.787 -9.393,13.972c-0.51,0.398 -8.286,6.32 -7.365,17.056c1.207,14.083 17.703,53.534 144.576,115.241c161.111,78.353 254.318,19.333 290.236,-14.183l-195.361,-99.403c-21.436,-5.263 -160.003,-41.105 -241.492,-105.811Zm294.578,300.873c-46.903,-0 -102.439,-11.521 -166.771,-42.81c-110.526,-53.757 -165.714,-103.397 -168.725,-151.767c-1.032,-16.708 4.603,-30.319 11.633,-40.159c-30.73,-58.66 -1.966,-113.238 -0.61,-115.726c3.309,-6.133 9.405,-10.277 16.322,-11.109c6.88,-0.835 13.822,1.741 18.513,6.904c67.877,74.844 247.189,117.952 248.993,118.388c1.667,0.385 3.284,0.983 4.815,1.754l222.556,113.238c5.536,2.811 9.592,7.887 11.11,13.921c1.505,6.034 0.348,12.416 -3.21,17.517c-0.846,1.232 -64.544,89.849 -194.626,89.849Z" style="fill:#000072;fill-rule:nonzero;"/><path d="M1568.15,2363.58c-10.314,1.642 -19.11,2.525 -28.502,3.185c-9.257,0.746 -18.451,0.982 -27.632,1.219c-9.194,0.162 -18.35,-0.087 -27.494,-0.224c-9.132,-0.56 -18.251,-0.933 -27.333,-1.667c-36.353,-2.949 -72.245,-9.866 -106.881,-20.279l-12.988,-3.844c-4.342,-1.232 -8.51,-3.061 -12.752,-4.566c-8.447,-3.21 -16.944,-6.208 -25.268,-9.592c-16.285,-7.763 -32.931,-14.519 -48.233,-23.986c-31.662,-16.845 -59.729,-39.276 -86.527,-62.23c29.087,20.204 58.796,39.338 91.329,52.613c15.725,7.676 32.608,12.565 48.943,18.45c8.348,2.438 16.833,4.479 25.193,6.73c4.217,1.033 8.335,2.377 12.615,3.136l12.802,2.401c33.988,6.568 68.549,9.642 102.911,8.945c8.585,-0.187 17.156,-0.709 25.703,-1.045c8.522,-0.747 17.057,-1.369 25.517,-2.377c8.447,-1.094 16.882,-2.164 25.18,-3.707c8.174,-1.368 16.858,-3.235 23.875,-5.088l9.542,41.926Z" style="fill:#000072;fill-rule:nonzero;"/><path d="M2392.67,1807.71l-0.063,0.062c-319.857,205.289 -704.581,542.103 -704.581,542.103l-79.237,-149.391c28.005,-26.425 56.209,-51.12 84.338,-74.086c352.353,-288.344 699.543,-318.688 699.543,-318.688Z" style="fill:#00a4ff;fill-rule:nonzero;"/><path d="M1697.45,2313.31c2.762,-18.251 3.545,-39.562 1.717,-64.419c-0.088,-1.133 -0.187,-2.265 -0.287,-3.384c14.954,-13.175 30.269,-26.151 45.609,-38.841c29.746,-24.583 60.189,-48.433 91.366,-71.337c31.14,-22.964 62.877,-45.222 95.41,-66.322c32.334,-21.436 65.726,-41.255 99.403,-60.725c-35.295,16.273 -70.515,33.006 -104.864,51.469c-10.14,5.324 -20.229,10.749 -30.282,16.286c103.907,-71.076 246.667,-160.067 396.544,-227.211c-249.802,171.785 -515.343,396.407 -594.616,464.484Zm-8.497,-107.216c-4.977,-11.732 -11.546,-22.344 -19.334,-31.725c12.79,-11.135 25.591,-21.921 38.393,-32.346c13.673,10.811 30.456,16.471 47.388,16.471c1.107,0 2.202,-0.024 3.309,-0.074c-11.259,7.39 -22.456,14.867 -33.591,22.468c-12.167,8.311 -24.21,16.684 -36.165,25.206Z" style="fill:#0072d4;fill-rule:nonzero;"/><path d="M1635.5,2204.95l58.871,111.011c75.404,-64.855 345.747,-294.067 599.38,-468.291c-140.06,33.392 -405.015,123.477 -658.251,357.28Zm52.526,166.435c-1.306,0 -2.6,-0.124 -3.907,-0.361c-6.456,-1.181 -12.018,-5.262 -15.09,-11.072l-79.237,-149.416c-4.529,-8.559 -2.799,-19.072 4.242,-25.715c380.159,-358.387 779.912,-397.091 796.745,-398.559c9.753,-0.859 19.022,5.113 22.207,14.469c3.197,9.368 -0.398,19.694 -8.721,25.043c-314.819,202.104 -698.249,536.928 -702.081,540.287c-3.957,3.458 -8.995,5.324 -14.158,5.324Z" style="fill:#000072;fill-rule:nonzero;"/><path d="M1629.61,2250.63c31.451,-24.969 63.038,-47.562 95.509,-69.744c32.372,-22.082 65.278,-43.282 98.782,-63.424c33.453,-20.216 67.368,-39.586 101.904,-57.713c34.349,-18.463 69.569,-35.196 104.864,-51.469c-33.677,19.47 -67.069,39.289 -99.403,60.725c-32.533,21.1 -64.27,43.358 -95.41,66.322c-31.177,22.904 -61.62,46.754 -91.366,71.337c-29.622,24.509 -59.082,50.062 -86.278,76.076l-28.602,-32.11Z" style="fill:#000072;fill-rule:nonzero;"/><path d="M1575.25,2421.62c-104.679,96.741 -237.61,-59.281 -237.61,-165.241c-0,-53.571 30.779,-71.448 61.184,-76.052c29.734,-4.541 59.219,3.683 59.219,3.683c1.717,-2.389 3.446,-4.728 5.163,-7.004c72.917,-96.069 227.098,-48.396 235.943,71.871c13.946,189.016 -123.899,172.743 -123.899,172.743Z" style="fill:#00a4ff;fill-rule:nonzero;"/><path d="M1449.97,2437.72c-0,-0.012 -0.013,-0.012 -0.025,-0.024c0.012,0.012 0.012,0.012 0.025,0.024Zm-0.199,-0.111c-0.037,-0.025 -0.087,-0.05 -0.125,-0.063c0.038,0.013 0.075,0.038 0.125,0.063Zm-0.199,-0.1c-0.075,-0.05 -0.162,-0.087 -0.237,-0.137c0.075,0.05 0.162,0.087 0.237,0.137Z" style="fill:#7c94cb;fill-rule:nonzero;"/><path d="M1403.07,2401.6c-6.345,-6.606 -12.379,-13.66 -18.015,-21.062c0.013,-0 0.025,0.012 0.025,0.012c5.636,7.403 11.657,14.444 18.002,21.038c0,0.012 0,0.012 -0.012,0.012Z" style="fill:#0050b6;fill-rule:nonzero;"/><path d="M1449.34,2437.37c-16.558,-8.821 -32.209,-21.174 -46.267,-35.768c0.012,0 0.012,0 0.012,-0.012c14.058,14.606 29.697,26.959 46.255,35.78Z" style="fill:#000072;fill-rule:nonzero;"/><path d="M1649.96,2401.16c10.476,-7.602 20.466,-17.915 28.752,-31.911c-8.274,13.996 -18.276,24.309 -28.752,31.911Z" style="fill:#0050b6;fill-rule:nonzero;"/><path d="M1697.43,2313.33c2.762,-18.276 3.546,-39.575 1.717,-64.457c-0.087,-1.12 -0.187,-2.252 -0.286,-3.359l0.012,-0.012c0.1,1.119 0.199,2.251 0.287,3.384c1.828,24.857 1.045,46.168 -1.717,64.419c-0.013,0.012 -0.013,0.012 -0.013,0.025Z" style="fill:#0050b6;fill-rule:nonzero;"/><path d="M1678.71,2369.25c8.509,-14.407 15.202,-32.707 18.723,-55.922c0,-0.013 0,-0.013 0.013,-0.025c-3.509,23.24 -10.202,41.553 -18.736,55.947Z" style="fill:#000072;fill-rule:nonzero;"/><path d="M1698.87,2245.52c-0.771,-7.95 -2.19,-15.576 -4.168,-22.854c1.978,7.278 3.397,14.892 4.18,22.842l-0.012,0.012Z" style="fill:#000072;fill-rule:nonzero;"/><path d="M1503.59,2451.97c-18.338,-0 -36.452,-5.225 -53.621,-14.258c-0.013,-0.012 -0.013,-0.012 -0.025,-0.024c-0.062,-0.025 -0.112,-0.05 -0.174,-0.087c-0.05,-0.025 -0.087,-0.05 -0.125,-0.063c-0.024,-0.012 -0.049,-0.025 -0.074,-0.037c-0.075,-0.05 -0.162,-0.087 -0.237,-0.137c-16.558,-8.821 -32.197,-21.174 -46.255,-35.78c-6.345,-6.594 -12.366,-13.635 -18.002,-21.038c0.012,0 0.025,0.013 0.025,0.013c7.041,9.231 14.693,17.939 22.817,25.889c-4.79,-7.041 -9.244,-14.332 -13.3,-21.759c18.55,7.888 41.677,16.447 61.819,16.447c19.956,-0 36.975,-8.41 43.643,-34.237c0.846,-3.322 3.807,-5.586 7.129,-5.586c0.373,-0 0.746,0.024 1.12,0.074c6.133,0.946 15.924,2.09 27.469,2.09c50.349,0 133.753,-21.684 89.65,-176.027c-2.202,-7.676 -3.77,-15.253 -5.412,-22.58c22.904,4.155 44.775,14.145 62.901,29.136c-11.371,-20.465 -27.867,-36.875 -47.076,-48.445c27.544,16.547 49.49,42.971 58.833,77.097c1.978,7.278 3.397,14.904 4.168,22.854c0.099,1.107 0.199,2.239 0.286,3.359c1.829,24.882 1.045,46.181 -1.717,64.457c-3.521,23.215 -10.214,41.515 -18.723,55.922c-8.286,13.996 -18.276,24.309 -28.752,31.911c-25.242,18.288 -53.272,20.789 -66.696,20.789c-5.05,-0 -8.036,-0.361 -8.036,-0.361c-23.078,21.336 -47.537,30.381 -71.635,30.381Z" style="fill:#0072d4;fill-rule:nonzero;"/><path d="M1524.57,2299.19c0,0 -86.714,-3.284 -116.335,-76.176c6.842,-2.886 14.083,-4.74 21.311,-5.835c4.479,-0.671 8.684,-0.97 12.603,-0.97c5.673,0 10.736,0.61 15.14,1.518c4.23,23.663 19.694,55.586 67.281,81.463Zm-66.522,-115.178c0,-0 -18.076,-5.039 -40.197,-5.051c22.121,-0 40.197,5.051 40.197,5.051Zm-59.219,-3.683c0.162,-0.024 0.324,-0.049 0.485,-0.074c-0.161,0.025 -0.323,0.05 -0.485,0.074Zm18.96,-1.368l0.013,-0l-0.013,-0Z" style="fill:#0072d4;fill-rule:nonzero;"/><path d="M1337.75,2261.63l-0,-0.025l-0,0.025Zm-0.013,-0.286l0,-0.025l0,0.025Zm-0.025,-0.883c0,-0.013 0,-0.038 -0.012,-0.05c0.012,0.025 0.012,0.037 0.012,0.05Zm-0.012,-0.262l-0,-0.074l-0,0.074Zm-0.013,-0.286l0,-0.074l0,0.074Zm0,-0.298l0,-0.05l0,0.05Zm-0.012,-0.336l-0,-0.013l-0,0.013Zm-0,-0.274c-0,-0.012 -0,-0.037 -0.013,-0.062c0,0.012 0.013,0.05 0.013,0.062Zm-0.013,-0.274l0,-0.074l0,0.074Zm0,-0.273l0,-0.087l0,0.087Zm-0.012,-0.287l0,-0.074l0,0.074Zm0,-0.348l0,-0.012l0,0.012Zm0,-0.261l0,-0.087l0,0.087Zm0,-0.274l0,-0.099l0,0.099Zm0,-0.274c0,-0.037 0,-0.062 -0.012,-0.099c0.012,0.037 0.012,0.062 0.012,0.099Zm-0.012,-0.286l-0,-0.087l-0,0.087Z" style="fill:#b2d4f2;fill-rule:nonzero;"/><path d="M1394.62,2384.69c-3.334,-1.418 -6.519,-2.812 -9.517,-4.13c-27.557,-36.166 -45.808,-80.431 -47.35,-118.936l-0,-0.025c-0,-0.087 -0.013,-0.174 -0.013,-0.261l0,-0.025c-0.012,-0.286 -0.025,-0.572 -0.025,-0.858c0,-0.013 0,-0.025 -0.012,-0.05l-0,-0.286c-0,-0.075 -0.013,-0.15 -0.013,-0.212l0,-0.348c-0.012,-0.1 -0.012,-0.187 -0.012,-0.286l-0,-0.274c-0,-0.012 -0.013,-0.05 -0.013,-0.062l0,-0.572c0,-0.063 -0.012,-0.137 -0.012,-0.2l0,-1.157c0,-0.037 0,-0.062 -0.012,-0.099l-0,-0.535c-0,-53.571 30.779,-71.448 61.184,-76.052c1.095,16.373 4.454,30.506 9.406,42.685c-21.984,9.281 -39.874,29.373 -39.874,70.217c0,28.826 9.841,61.334 26.263,91.466Z" style="fill:#b2e4ff;fill-rule:nonzero;"/><path d="M1407.92,2406.45c-8.124,-7.95 -15.776,-16.658 -22.817,-25.889c2.998,1.318 6.183,2.712 9.517,4.13c4.056,7.427 8.51,14.718 13.3,21.759Z" style="fill:#b2d4f2;fill-rule:nonzero;"/><path d="M1463.21,2177c0.05,-0.063 0.112,-0.137 0.162,-0.212c-0.05,0.075 -0.112,0.149 -0.162,0.212Zm1.543,-2.003c0.025,-0.025 0.05,-0.05 0.062,-0.075c-0.025,0.025 -0.037,0.05 -0.062,0.075Zm0.323,-0.399c0.013,-0.012 0.025,-0.037 0.038,-0.049c-0.013,0.025 -0.025,0.037 -0.038,0.049Zm0.038,-0.049c10.886,-13.71 23.463,-24.347 37.036,-32.135c-13.573,7.788 -26.15,18.425 -37.036,32.135Zm37.111,-32.185c0.037,-0.012 0.075,-0.037 0.112,-0.062c-0.05,0.025 -0.075,0.05 -0.112,0.062Z" style="fill:#e8e8f2;fill-rule:nonzero;"/><path d="M1474.64,2221.39c-3.135,-0 -6.282,-0.51 -9.318,-1.53c-2.364,-0.784 -5.038,-1.53 -8.037,-2.14c-3.52,-19.719 0.759,-33.715 0.759,-33.715c1.717,-2.389 3.446,-4.728 5.163,-7.004c0.05,-0.063 0.112,-0.137 0.162,-0.212c0.46,-0.597 0.921,-1.194 1.381,-1.791c0.025,-0.025 0.037,-0.05 0.062,-0.075c0.087,-0.112 0.174,-0.212 0.261,-0.324c0.013,-0.012 0.025,-0.024 0.038,-0.049c10.886,-13.71 23.463,-24.347 37.036,-32.135c0.025,-0.013 0.05,-0.025 0.075,-0.05c0.037,-0.012 0.062,-0.037 0.112,-0.062c19.619,-11.21 41.304,-16.484 62.902,-16.484c24.732,-0 49.353,6.917 70.627,19.743c-8.298,-4.989 -17.094,-9.082 -26.213,-12.217c5.237,9.567 7.875,20.254 10.388,31.526c-7.95,-1.443 -16.011,-2.177 -24.111,-2.177c-37.472,-0 -75.218,15.874 -102.003,51.169c-0.523,0.672 -2.04,1.767 -3.981,3.023c-4.616,2.999 -9.928,4.504 -15.303,4.504Z" style="fill:#b2e4ff;fill-rule:nonzero;"/><path d="M1682.94,2194.01c-18.126,-14.991 -39.997,-24.981 -62.901,-29.136c-2.513,-11.272 -5.151,-21.959 -10.388,-31.526c9.119,3.135 17.915,7.228 26.213,12.217c19.209,11.57 35.705,27.98 47.076,48.445Z" style="fill:#b2d4f2;fill-rule:nonzero;"/><path d="M1399.31,2180.25c6.271,-0.921 12.516,-1.294 18.475,-1.294c-5.959,-0 -12.204,0.373 -18.475,1.294Z" style="fill:#e8e8f2;fill-rule:nonzero;"/><path d="M1408.23,2223.01c-4.952,-12.179 -8.311,-26.312 -9.406,-42.685c0.162,-0.024 0.324,-0.049 0.485,-0.074c6.271,-0.921 12.516,-1.294 18.475,-1.294l0.062,-0c22.121,0.012 40.197,5.051 40.197,5.051c0,-0 -4.279,13.996 -0.759,33.715c-4.404,-0.908 -9.467,-1.518 -15.14,-1.518c-3.919,0 -8.124,0.299 -12.603,0.97c-7.228,1.095 -14.469,2.949 -21.311,5.835Z" style="fill:#b2d4f2;fill-rule:nonzero;"/><path d="M1417.97,2200.44c-14.78,0 -30.68,2.588 -41.764,11.048c-11.496,8.771 -17.082,23.464 -17.082,44.912c0,62.03 51.792,141.18 108.647,166.049c33.727,14.743 64.967,9.145 92.847,-16.646c4.628,-4.267 10.861,-6.282 17.131,-5.561c0.249,0.025 39.761,3.845 68.276,-23.787c25.38,-24.596 36.042,-66.994 31.687,-125.99c-4.155,-56.357 -43.991,-87.795 -79.896,-98.42c-34.996,-10.363 -84.25,-5.835 -117.492,37.945c-1.568,2.065 -3.135,4.193 -4.69,6.407c-5.225,7.415 -14.569,10.749 -23.302,8.323c-6.793,-1.854 -20.055,-4.28 -34.362,-4.28Zm85.519,273.03c-17.38,-0 -35.158,-3.857 -52.936,-11.633c-72.867,-31.861 -134.425,-125.939 -134.425,-205.437c0,-35.357 11.483,-62.006 34.15,-79.224c31.999,-24.297 75.928,-21.063 98.857,-17.094c39.076,-48.344 100.236,-67.219 160.898,-49.265c62.417,18.474 105.811,72.044 110.576,136.476c5.362,72.717 -9.854,126.736 -45.223,160.588c-32.907,31.476 -73.539,35.544 -92.337,35.544l-0.162,-0c-24.16,19.918 -51.232,30.045 -79.398,30.045Z" style="fill:#000072;fill-rule:nonzero;"/><path d="M1479.03,2188.8l-0.709,6.444c-0.274,2.463 -0.51,4.939 -0.635,7.452c-0.398,5.014 -0.422,10.04 -0.36,15.079c0.236,10.052 1.754,19.918 4.926,29.547c3.21,9.592 8.162,19.134 15.601,27.631c3.384,4.628 7.863,8.274 12.168,12.566c4.466,4.055 9.554,7.414 14.518,11.657c-6.22,-0.56 -12.789,-1.058 -19.134,-2.6c-6.171,-1.941 -12.876,-3.446 -18.749,-6.893c-12.453,-5.673 -23.538,-15.339 -32.16,-26.972c-8.733,-11.644 -14.605,-25.491 -17.529,-39.612c-0.56,-3.533 -1.306,-7.103 -1.654,-10.674c-0.262,-3.583 -0.635,-7.166 -0.598,-10.761c-0.062,-3.583 0.125,-7.191 0.448,-10.799c0.398,-3.807 0.809,-6.88 1.953,-11.657l41.914,9.592Z" style="fill:#000072;fill-rule:nonzero;"/><path d="M1568.61,2442.06c-3.994,-1.654 -6.494,-3.172 -9.455,-5.001c-2.824,-1.804 -5.549,-3.695 -8.149,-5.76c-5.238,-4.068 -10.065,-8.671 -14.456,-13.648c-4.454,-4.864 -8.261,-10.487 -11.434,-16.273c-3.16,-5.81 -5.275,-12.316 -6.22,-18.773c6.084,2.737 11.57,5.014 17.056,6.93c5.45,1.928 10.7,3.57 15.962,5.013c5.275,1.406 10.475,2.613 15.601,3.733l7.602,1.567c2.339,0.473 5.237,1.07 6.718,1.294l-13.225,40.918Z" style="fill:#000072;fill-rule:nonzero;"/></g></svg>